<svg version="1.1" id="Layer_1" xmlns="http://www.w3.org/2000/svg" xmlns:xlink="http://www.w3.org/1999/xlink" x="0px" y="0px"
	 width="100%" viewBox="0 0 1114 1114" enable-background="new 0 0 1114 1114" xml:space="preserve">
<path fill="#FFFFFF" opacity="1.000000" stroke="none" 
	d="
M617.000000,1115.000000 
	C411.356293,1115.000000 206.212570,1115.000000 1.034431,1115.000000 
	C1.034431,743.731140 1.034431,372.462341 1.034431,1.096746 
	C372.227264,1.096746 743.454590,1.096746 1114.840942,1.096746 
	C1114.840942,372.333282 1114.840942,743.666626 1114.840942,1115.000000 
	C949.128601,1115.000000 783.314270,1115.000000 617.000000,1115.000000 
M865.049072,495.226440 
	C864.387146,494.799530 863.725220,494.372620 863.027771,493.983582 
	C863.027771,493.983582 863.033142,493.932037 862.678955,493.345093 
	C856.792969,490.040466 850.906982,486.735840 845.021057,483.431244 
	C844.626160,483.883270 844.231262,484.335327 843.836365,484.787354 
	C845.203247,488.226410 846.570190,491.665466 848.055237,495.541016 
	C848.055237,495.541016 848.152832,495.982574 848.031433,496.770477 
	C852.723083,514.682007 859.058350,532.168884 863.231079,550.974487 
	C857.966431,550.974487 854.002197,550.974487 849.093201,550.953613 
	C812.726624,550.975647 776.360046,550.997681 739.492493,550.982788 
	C739.325134,550.988586 739.157776,550.994446 738.669067,550.176575 
	C698.755615,550.115540 658.842224,550.049744 618.928772,550.035278 
	C618.291443,550.035034 617.653931,550.663574 616.603516,550.922363 
	C616.603516,550.922363 616.183594,550.928650 615.644409,550.450745 
	C613.767151,550.644897 611.889893,550.839050 609.498840,550.992432 
	C609.327026,550.995422 609.155273,550.998474 608.667419,550.175659 
	C606.842712,550.114685 605.018066,550.000854 603.193359,550.000427 
	C560.272217,549.991089 517.351135,549.981995 474.430023,549.998169 
	C435.332367,550.012939 396.234711,550.057556 356.538361,549.733948 
	C354.257568,547.846680 351.912903,546.030762 349.709076,544.057495 
	C344.907745,539.758728 340.225494,535.326660 335.408417,531.046021 
	C327.902771,524.376160 320.256378,517.862122 312.869141,511.065216 
	C311.980011,510.247131 311.606598,507.669739 312.214355,506.602753 
	C322.011566,489.402496 331.928802,472.269043 341.976959,455.213623 
	C354.109833,434.619690 366.412140,414.125641 378.603271,393.565918 
	C390.101105,374.175446 401.580505,354.773865 413.012451,335.344482 
	C427.653351,310.461212 442.331909,285.599304 456.820190,260.627228 
	C469.761932,238.320847 482.457733,215.871826 495.311005,193.513885 
	C495.828156,192.614273 496.847687,192.003479 497.633118,191.258102 
	C498.434418,192.150558 499.585205,192.909439 499.984924,193.955368 
	C506.605438,211.279404 517.833496,225.615616 530.292786,238.854691 
	C549.134644,258.875793 572.905884,272.643463 595.178955,288.313263 
	C609.519653,298.402405 624.075806,308.421021 637.123779,320.054596 
	C655.069641,336.055176 669.469666,355.142822 677.944763,378.028320 
	C682.485718,390.290436 685.593323,402.716553 682.514954,416.114624 
	C678.266541,434.605377 667.783386,449.275940 654.843018,462.306702 
	C650.684753,466.494049 650.126282,469.668243 652.600220,474.531403 
	C661.346741,491.724365 666.693848,510.032593 670.161194,528.956360 
	C670.368652,530.088562 672.284241,531.769409 673.368164,531.742004 
	C681.443420,531.537170 689.509338,530.965393 697.389160,530.519348 
	C697.613220,529.985657 697.763794,529.809143 697.730042,529.681580 
	C693.174561,512.514282 688.745422,495.311127 683.927551,478.217560 
	C682.879456,474.499207 682.602844,471.783539 685.504761,468.739197 
	C688.764282,465.319824 691.782654,461.522888 694.188660,457.464935 
	C701.829895,444.577209 708.867554,431.312225 709.074341,415.831512 
	C709.210510,405.636963 709.860352,395.174011 707.946045,385.282990 
	C703.564575,362.644257 692.389465,342.974457 678.447266,324.735840 
	C668.377686,311.563324 656.985229,299.532898 643.908142,289.651001 
	C624.124573,274.701233 603.002808,261.535919 582.895996,246.995102 
	C571.193115,238.531769 560.282898,228.957428 549.200378,219.663132 
	C546.873535,217.711761 545.354248,214.797623 543.462830,212.327118 
	C543.765503,211.984314 544.068237,211.641495 544.370972,211.298691 
	C545.535767,211.967575 546.817688,212.491959 547.848145,213.326736 
	C567.944458,229.607132 591.081238,240.878876 613.494751,253.359650 
	C625.754578,260.186401 638.008301,267.067322 649.885803,274.527100 
	C666.584106,285.014648 681.389648,297.834900 695.447449,311.725433 
	C714.966919,331.012512 729.803284,353.524231 741.571411,377.903595 
	C751.102356,397.648254 758.659485,418.383575 762.379395,440.213074 
	C762.603760,441.530121 761.775940,443.785767 760.716980,444.442535 
	C751.985596,449.857758 744.662903,456.825775 739.010315,465.247711 
	C726.347961,484.113739 726.817688,504.409393 733.458313,525.205750 
	C734.783875,529.357178 737.530823,530.929077 741.654419,530.942444 
	C747.979431,530.963013 754.303772,531.133240 760.628845,531.199036 
	C764.040710,531.234558 764.588013,529.418213 763.380615,526.651550 
	C759.246277,517.177673 756.673401,507.540314 756.788513,496.940826 
	C756.871216,489.325043 758.717407,483.050354 763.583801,477.450287 
	C770.496033,469.495941 779.817078,466.196442 789.691833,464.084015 
	C793.123535,463.349915 794.498535,461.747742 793.761230,458.184937 
	C791.109802,445.372589 788.920105,432.454773 785.919617,419.726807 
	C780.645203,397.352570 772.389709,375.947937 761.644714,355.713928 
	C748.049988,330.113281 731.237793,306.708008 709.544128,287.156555 
	C701.746582,280.128967 694.165222,272.781128 685.820190,266.456970 
	C664.777527,250.510040 641.846130,237.545441 618.633484,225.040665 
	C604.120667,217.222504 589.558838,209.392593 575.675293,200.538803 
	C562.366394,192.051529 550.035828,182.152863 540.023743,169.619003 
	C524.554871,150.254028 514.359375,128.752930 511.982910,103.850571 
	C511.455139,98.320251 507.734772,95.190369 502.073792,95.047203 
	C498.772705,94.963715 495.447845,94.171661 492.194946,94.440331 
	C490.192169,94.605751 487.911469,95.784111 486.493530,97.230919 
	C485.410583,98.335930 485.087219,100.580772 485.108673,102.310097 
	C485.279510,116.085205 485.192230,129.886658 486.117340,143.617172 
	C486.457733,148.669174 487.016998,153.382523 484.527802,157.889908 
	C480.301819,165.542160 476.033508,173.174576 471.605774,180.711212 
	C459.730438,200.924744 447.710236,221.053192 435.843719,241.271835 
	C424.058289,261.352234 412.453308,281.538605 400.651306,301.609161 
	C390.131409,319.499298 379.350708,337.236328 368.867645,355.147736 
	C357.678772,374.265106 346.761353,393.541199 335.618286,412.685638 
	C325.618042,429.866608 315.516602,446.989136 305.376526,464.088074 
	C297.646454,477.123016 289.786011,490.080658 281.195190,503.198730 
	C279.606750,503.800049 278.022949,504.909241 276.429169,504.923828 
	C261.322174,505.062164 246.211853,505.152985 231.105804,504.975189 
	C219.570053,504.839447 208.040390,504.219727 196.504486,504.028503 
	C195.042099,504.004272 193.558273,505.273834 192.302307,506.597351 
	C193.827362,509.070038 195.352417,511.542755 196.948120,514.729187 
	C207.180115,529.544067 217.225128,544.493896 227.758926,559.090942 
	C230.888611,563.427856 231.587570,566.837769 227.372208,571.037964 
	C227.241287,571.359436 227.110352,571.680969 226.700134,572.623535 
	C219.430878,583.017456 212.161606,593.411377 204.445648,604.074829 
	C204.305374,604.380493 204.165100,604.686157 204.043381,605.500977 
	C204.038223,605.670715 204.033066,605.840515 204.002335,605.995544 
	C204.002335,605.995544 204.011108,606.022949 203.397079,606.300842 
	C199.596588,611.445068 195.796082,616.589294 191.593719,622.277527 
	C193.689499,623.027161 194.882996,623.822266 196.078156,623.824768 
	C208.817200,623.851135 221.557327,623.820557 234.295502,623.667358 
	C246.434875,623.521362 258.571564,623.145020 270.710968,623.014465 
	C274.272064,622.976135 277.067932,624.086914 278.758362,627.957825 
	C280.937805,632.948486 283.970093,637.570557 286.684296,642.323181 
	C296.792603,660.023132 306.830322,677.764282 317.065094,695.390930 
	C329.607513,716.991699 342.323944,738.491333 354.959808,760.037781 
	C363.160187,774.020874 371.343018,788.014282 379.548431,801.994446 
	C387.242340,815.103088 395.036224,828.153809 402.636841,841.316162 
	C409.665131,853.487427 416.384949,865.837097 423.439880,877.992554 
	C433.297821,894.977539 443.332977,911.859741 453.306824,928.777344 
	C463.469330,946.015076 473.735199,963.192871 483.724609,980.530151 
	C485.139404,982.985718 485.709686,986.173950 485.840302,989.060669 
	C486.002411,992.644226 485.052277,996.264404 485.016937,999.873047 
	C484.910065,1010.778442 485.011993,1021.685791 485.035217,1032.592407 
	C485.046234,1037.762451 486.888275,1039.720581 492.194000,1039.913208 
	C495.688843,1040.040039 499.222839,1039.640503 502.684479,1040.001953 
	C508.230896,1040.581055 510.367035,1037.075439 511.777618,1032.829468 
	C512.530151,1030.564209 512.740967,1028.066162 512.871155,1025.655640 
	C513.616821,1011.851318 517.763855,998.919189 523.809753,986.712708 
	C535.288513,963.537231 552.447327,944.946106 574.165161,931.349182 
	C597.455444,916.767944 621.655579,903.610535 645.718384,890.301453 
	C666.948181,878.559326 687.028870,865.197388 704.825989,848.755676 
	C724.705994,830.389709 742.129089,809.878967 755.470703,786.125854 
	C763.195129,772.373413 769.934082,758.226135 775.621887,743.469421 
	C782.807800,724.825989 788.048035,705.751343 791.373535,686.105835 
	C792.468567,679.636536 793.335571,673.128662 794.300354,666.682251 
	C789.768066,665.624939 785.999878,664.994324 782.392273,663.855286 
	C773.465149,661.036865 765.885193,656.346741 760.941711,647.997192 
	C755.222778,638.337830 755.558105,628.192200 758.202209,617.846130 
	C759.738831,611.833496 761.532043,605.886414 763.446411,599.066895 
	C756.457764,599.066895 750.008667,599.030579 743.560059,599.075500 
	C734.058960,599.141663 735.615723,598.510559 733.712341,606.474915 
	C733.250366,608.407959 732.457214,610.259644 731.869629,612.165222 
	C727.057434,627.772400 728.369019,642.869019 735.307617,657.641113 
	C740.643066,669.000122 749.005859,677.364075 759.522644,683.921326 
	C761.061035,684.880493 763.022095,687.455200 762.695984,688.759460 
	C759.109802,703.104248 756.351013,717.841980 750.896851,731.485352 
	C744.501038,747.484131 736.546509,763.041077 727.622437,777.794189 
	C719.592651,791.068787 710.450134,804.061035 699.766541,815.235107 
	C687.889954,827.657227 674.098816,838.377991 660.450012,848.946899 
	C639.298157,865.325806 614.308105,875.290833 591.441162,888.829102 
	C577.478088,897.095886 563.835632,905.905273 550.081177,914.521973 
	C548.587646,915.457581 547.306885,916.732727 545.927429,917.850403 
	C545.423706,917.266296 544.919922,916.682251 544.416199,916.098145 
	C552.049988,908.875000 559.047180,900.787292 567.445618,894.602417 
	C586.995117,880.205627 607.317993,866.864075 627.124329,852.808594 
	C635.611816,846.785583 644.119812,840.613220 651.703491,833.529175 
	C672.091187,814.484985 690.146606,793.648865 701.285522,767.470032 
	C710.249084,746.403564 712.225403,724.902527 707.319824,702.771545 
	C703.867004,687.194031 695.037354,674.167358 685.646790,661.665833 
	C683.024658,658.175110 683.037170,655.444824 684.104614,651.693604 
	C688.675537,635.629578 692.903870,619.467957 697.477783,603.404846 
	C698.544189,599.659668 697.084778,598.969055 693.924744,599.042358 
	C690.427307,599.123596 686.925171,598.993286 683.426941,599.058105 
	C679.282593,599.134827 674.319092,598.000244 671.267944,599.896484 
	C669.002075,601.304749 669.070129,606.678223 668.354858,610.335571 
	C665.016541,627.405945 659.174133,643.605835 651.990417,659.406982 
	C651.157471,661.239136 651.850830,664.683838 653.139160,666.406982 
	C659.644653,675.107788 667.541138,682.911804 673.071960,692.154053 
	C677.732483,699.942078 681.420044,709.040894 682.697144,717.965942 
	C684.995117,734.025879 680.904541,749.524048 673.455444,763.968018 
	C662.307190,785.584534 646.686157,803.699463 628.088318,819.045410 
	C617.071716,828.135986 604.740906,835.626221 593.072632,843.936646 
	C575.675537,856.327209 557.569702,867.877808 541.187012,881.496094 
	C522.981567,896.629517 509.066101,915.661255 499.564728,937.613159 
	C498.504791,940.061890 497.402802,942.492493 495.908295,945.859985 
	C491.844208,939.176758 488.335083,933.626770 485.040497,927.952332 
	C465.126923,893.653992 445.327148,859.289551 425.362305,825.021118 
	C407.484924,794.335510 389.386475,763.778687 371.495605,733.100952 
	C360.121338,713.597229 349.053040,693.914978 337.651794,674.427246 
	C328.370697,658.563477 318.826874,642.852905 309.331024,627.115723 
	C307.526733,624.125488 307.388367,622.091003 310.507751,619.525757 
	C319.342499,612.260315 327.858124,604.601990 336.399414,596.986206 
	C343.056488,591.050537 349.563843,584.946899 357.054535,578.982971 
	C449.982117,578.955322 542.909668,578.927673 636.779968,578.954163 
	C641.206055,578.591797 645.632202,578.229431 650.841675,577.924561 
	C651.892395,577.932251 652.943115,577.939941 654.225586,578.310852 
	C654.756836,578.207214 655.288025,578.103638 656.123413,578.869690 
	C667.365479,578.878174 678.607483,578.886658 690.675415,578.953003 
	C692.446289,578.612549 694.217163,578.272034 696.876587,577.928528 
	C699.244812,577.901611 701.613037,577.874695 704.498169,577.899963 
	C704.670044,577.878174 704.841858,577.856445 705.704529,577.875916 
	C706.164429,577.914062 706.624329,577.952209 707.319275,578.843750 
	C713.269226,578.913818 719.222351,579.129395 725.168091,579.002441 
	C729.091614,578.918579 733.004578,578.342163 737.655945,577.720520 
	C740.764709,577.774231 743.873474,577.828003 747.500000,577.936584 
	C747.672974,577.922546 747.845947,577.908569 748.936707,577.923767 
	C752.617065,577.911743 756.297363,577.899780 760.499329,577.941833 
	C760.673523,577.927002 760.847717,577.912231 761.764709,577.918762 
	C762.507751,577.911621 763.250854,577.904541 764.794006,577.974609 
	C765.864929,577.952759 766.935913,577.930908 768.861816,577.934753 
	C770.572876,577.919617 772.283875,577.904541 774.850159,577.966553 
	C776.566040,577.934875 778.281921,577.903137 780.794250,577.900940 
	C781.856079,577.880188 782.917969,577.859436 784.498230,577.901428 
	C784.671326,577.883240 784.844421,577.864990 785.951660,577.885315 
	C802.629456,577.879089 819.307190,577.872803 836.499207,577.921570 
	C836.670715,577.904114 836.842224,577.886658 837.763733,577.896973 
	C838.514099,577.911438 839.264465,577.925842 840.536560,578.512878 
	C847.369202,578.637939 854.201782,578.762939 861.755676,579.086365 
	C861.909668,580.540833 862.532349,582.134827 862.147156,583.428833 
	C856.366821,602.846741 850.431152,622.218323 844.622742,641.627991 
	C844.233459,642.929016 844.571960,644.447876 844.571960,646.508667 
	C847.146118,645.327759 848.866760,644.700745 850.427368,643.797424 
	C864.885437,635.428284 879.304688,626.992310 893.757874,618.614746 
	C904.483215,612.397888 915.242188,606.238892 926.537109,599.984924 
	C926.773926,599.709900 927.010681,599.434937 927.607910,599.023743 
	C927.607910,599.023743 927.978821,598.918945 928.638184,598.710205 
	C948.220764,587.358032 968.249512,576.748230 988.746216,564.200684 
	C982.024841,560.902588 977.016235,558.444885 972.000000,556.000000 
	C972.000000,556.000000 972.010254,555.992004 971.715515,555.370605 
	C957.404175,547.192566 943.095520,539.009766 928.780518,530.838013 
	C916.780457,523.987793 904.837463,517.033691 892.743530,510.353241 
	C886.002991,506.629883 879.005859,503.371246 872.047119,499.942108 
	C872.047119,499.942108 872.094177,499.869598 872.028564,499.162567 
	C869.722595,498.077698 867.416687,496.992798 865.018127,495.971252 
	C865.018127,495.971252 865.091309,495.886108 865.049072,495.226440 
z"/>
<path fill="#FFFFFF" opacity="1.000000" stroke="none" 
	d="
M281.983582,503.072662 
	C289.786011,490.080658 297.646454,477.123016 305.376526,464.088074 
	C315.516602,446.989136 325.618042,429.866608 335.618286,412.685638 
	C346.761353,393.541199 357.678772,374.265106 368.867645,355.147736 
	C379.350708,337.236328 390.131409,319.499298 400.651306,301.609161 
	C412.453308,281.538605 424.058289,261.352234 435.843719,241.271835 
	C447.710236,221.053192 459.730438,200.924744 471.605774,180.711212 
	C476.033508,173.174576 480.301819,165.542160 484.527802,157.889908 
	C487.016998,153.382523 486.457733,148.669174 486.117340,143.617172 
	C485.192230,129.886658 485.279510,116.085205 485.108673,102.310097 
	C485.087219,100.580772 485.410583,98.335930 486.493530,97.230919 
	C487.911469,95.784111 490.192169,94.605751 492.194946,94.440331 
	C495.447845,94.171661 498.772705,94.963715 502.073792,95.047203 
	C507.734772,95.190369 511.455139,98.320251 511.982910,103.850571 
	C514.359375,128.752930 524.554871,150.254028 540.023743,169.619003 
	C550.035828,182.152863 562.366394,192.051529 575.675293,200.538803 
	C589.558838,209.392593 604.120667,217.222504 618.633484,225.040665 
	C641.846130,237.545441 664.777527,250.510040 685.820190,266.456970 
	C694.165222,272.781128 701.746582,280.128967 709.544128,287.156555 
	C731.237793,306.708008 748.049988,330.113281 761.644714,355.713928 
	C772.389709,375.947937 780.645203,397.352570 785.919617,419.726807 
	C788.920105,432.454773 791.109802,445.372589 793.761230,458.184937 
	C794.498535,461.747742 793.123535,463.349915 789.691833,464.084015 
	C779.817078,466.196442 770.496033,469.495941 763.583801,477.450287 
	C758.717407,483.050354 756.871216,489.325043 756.788513,496.940826 
	C756.673401,507.540314 759.246277,517.177673 763.380615,526.651550 
	C764.588013,529.418213 764.040710,531.234558 760.628845,531.199036 
	C754.303772,531.133240 747.979431,530.963013 741.654419,530.942444 
	C737.530823,530.929077 734.783875,529.357178 733.458313,525.205750 
	C726.817688,504.409393 726.347961,484.113739 739.010315,465.247711 
	C744.662903,456.825775 751.985596,449.857758 760.716980,444.442535 
	C761.775940,443.785767 762.603760,441.530121 762.379395,440.213074 
	C758.659485,418.383575 751.102356,397.648254 741.571411,377.903595 
	C729.803284,353.524231 714.966919,331.012512 695.447449,311.725433 
	C681.389648,297.834900 666.584106,285.014648 649.885803,274.527100 
	C638.008301,267.067322 625.754578,260.186401 613.494751,253.359650 
	C591.081238,240.878876 567.944458,229.607132 547.848145,213.326736 
	C546.817688,212.491959 545.535767,211.967575 544.370972,211.298691 
	C544.068237,211.641495 543.765503,211.984314 543.462830,212.327118 
	C545.354248,214.797623 546.873535,217.711761 549.200378,219.663132 
	C560.282898,228.957428 571.193115,238.531769 582.895996,246.995102 
	C603.002808,261.535919 624.124573,274.701233 643.908142,289.651001 
	C656.985229,299.532898 668.377686,311.563324 678.447266,324.735840 
	C692.389465,342.974457 703.564575,362.644257 707.946045,385.282990 
	C709.860352,395.174011 709.210510,405.636963 709.074341,415.831512 
	C708.867554,431.312225 701.829895,444.577209 694.188660,457.464935 
	C691.782654,461.522888 688.764282,465.319824 685.504761,468.739197 
	C682.602844,471.783539 682.879456,474.499207 683.927551,478.217560 
	C688.745422,495.311127 693.174561,512.514282 697.730042,529.681580 
	C697.763794,529.809143 697.613220,529.985657 697.389160,530.519348 
	C689.509338,530.965393 681.443420,531.537170 673.368164,531.742004 
	C672.284241,531.769409 670.368652,530.088562 670.161194,528.956360 
	C666.693848,510.032593 661.346741,491.724365 652.600220,474.531403 
	C650.126282,469.668243 650.684753,466.494049 654.843018,462.306702 
	C667.783386,449.275940 678.266541,434.605377 682.514954,416.114624 
	C685.593323,402.716553 682.485718,390.290436 677.944763,378.028320 
	C669.469666,355.142822 655.069641,336.055176 637.123779,320.054596 
	C624.075806,308.421021 609.519653,298.402405 595.178955,288.313263 
	C572.905884,272.643463 549.134644,258.875793 530.292786,238.854691 
	C517.833496,225.615616 506.605438,211.279404 499.984924,193.955368 
	C499.585205,192.909439 498.434418,192.150558 497.633118,191.258102 
	C496.847687,192.003479 495.828156,192.614273 495.311005,193.513885 
	C482.457733,215.871826 469.761932,238.320847 456.820190,260.627228 
	C442.331909,285.599304 427.653351,310.461212 413.012451,335.344482 
	C401.580505,354.773865 390.101105,374.175446 378.603271,393.565918 
	C366.412140,414.125641 354.109833,434.619690 341.976959,455.213623 
	C331.928802,472.269043 322.011566,489.402496 312.214355,506.602753 
	C311.606598,507.669739 311.980011,510.247131 312.869141,511.065216 
	C320.256378,517.862122 327.902771,524.376160 335.408417,531.046021 
	C340.225494,535.326660 344.907745,539.758728 349.709076,544.057495 
	C351.912903,546.030762 354.257568,547.846680 357.029419,550.293518 
	C363.684296,550.996033 369.848145,551.138977 376.097137,551.572754 
	C377.124329,552.554016 378.066376,553.244324 378.748596,554.198242 
	C376.725220,554.458191 374.943787,554.611938 373.202301,554.414062 
	C370.573120,554.115356 367.322906,552.363770 365.478516,553.354797 
	C359.609741,556.508179 355.369110,553.569153 350.805817,550.892456 
	C347.230042,548.795044 343.756714,550.254578 340.680023,553.372559 
	C339.039886,555.034607 335.719482,555.478516 333.109253,555.627563 
	C330.110657,555.798828 326.914032,554.306885 324.068268,554.871765 
	C320.838837,555.512817 317.902771,557.631775 313.792145,559.612854 
	C315.937653,562.101562 318.188538,564.712402 320.424316,567.305786 
	C315.234161,572.713074 315.234161,572.713074 315.649780,576.007812 
	C314.516449,576.406067 313.732147,576.796448 312.584045,577.170898 
	C311.491150,577.152893 310.761963,577.150879 309.830383,576.857422 
	C307.304657,574.397400 304.577728,572.514771 302.778931,569.974792 
	C301.186462,567.726135 300.626740,564.746094 299.611084,562.088928 
	C298.410889,563.091125 298.300537,563.700745 298.280609,564.313354 
	C298.132843,568.853760 292.592743,572.751160 288.157471,572.200439 
	C284.717621,571.773254 280.168488,571.230957 277.821655,573.003174 
	C273.440186,576.311829 268.988617,575.864380 264.301575,576.026001 
	C261.206635,576.132629 257.326874,575.411133 255.207474,576.972717 
	C251.616745,579.618347 248.636520,583.481873 246.353973,587.390747 
	C244.519547,590.532104 242.747421,592.635925 239.022034,593.145813 
	C237.641296,593.334717 236.428543,594.751099 235.139191,595.607605 
	C236.416336,597.392517 237.323105,599.894836 239.059097,600.791016 
	C241.545349,602.074707 246.434830,603.545105 247.171997,602.570740 
	C251.238892,597.195251 256.591217,597.881165 261.849182,598.291687 
	C261.630310,599.779846 261.198730,601.903259 261.554382,602.044556 
	C267.194214,604.284363 267.705750,608.133057 265.012970,613.022034 
	C271.577423,613.463318 271.647888,613.586853 269.302338,619.547180 
	C269.124878,619.998169 269.100464,620.509460 268.554932,620.994629 
	C264.940765,620.403809 261.794830,619.662354 258.605896,619.270752 
	C256.497437,619.011780 254.301483,619.052612 252.190918,619.321777 
	C249.164841,619.707825 246.200714,620.732727 243.174301,620.926941 
	C238.756958,621.210510 234.307846,620.998474 229.872269,620.998291 
	C221.241974,620.997986 212.610046,621.081970 203.983093,620.911743 
	C202.620178,620.884827 200.639832,620.035278 200.102982,618.978088 
	C199.526382,617.842590 200.069275,615.928650 200.560440,614.505066 
	C201.554504,611.623840 202.843628,608.844360 204.011108,606.022949 
	C204.011108,606.022949 204.002335,605.995544 204.345779,605.930054 
	C208.665207,600.762268 217.422760,600.429688 217.612091,593.213013 
	C220.844421,592.495361 225.032242,592.350098 225.235687,591.374268 
	C225.862595,588.367188 224.967163,585.042786 224.650970,581.712952 
	C225.675461,578.789978 226.858215,575.415466 228.377182,571.957520 
	C234.123444,567.213379 235.139725,564.551636 232.739777,561.290100 
	C230.682983,558.494995 228.605026,555.715454 226.551651,552.917786 
	C223.084625,548.194214 223.332092,545.697205 226.873291,541.035461 
	C227.751312,539.879578 228.006439,537.415466 227.382431,536.109619 
	C225.481888,532.132324 221.115280,531.934326 214.859268,535.131958 
	C211.438339,530.919434 207.872421,526.807312 204.679108,522.423828 
	C203.736694,521.130127 202.971466,518.103699 203.617523,517.518188 
	C207.650101,513.863770 204.650024,511.054260 203.469742,508.009888 
	C226.382217,508.004303 248.826233,508.026825 271.269989,507.959930 
	C273.179382,507.954254 275.087006,507.352966 277.190582,506.921143 
	C277.646118,506.658386 277.853760,506.450226 278.412231,506.151245 
	C280.976532,506.250671 282.657745,505.888702 281.983582,503.072662 
M298.085236,534.960938 
	C298.085236,534.960938 298.041931,535.062012 297.880615,534.258118 
	C297.227173,534.185791 296.573761,534.113464 296.022705,534.001831 
	C296.022705,534.001831 296.063232,534.103760 295.746094,533.277283 
	C278.434021,533.277283 261.121948,533.277283 243.504761,533.277283 
	C243.984344,534.182739 244.348770,534.870789 245.061050,536.208252 
	C248.351654,540.477722 251.642242,544.747192 254.849945,549.755798 
	C255.902924,550.245117 256.955902,550.734375 258.292969,551.946777 
	C258.992981,552.288818 259.687805,552.916931 260.393768,552.929626 
	C269.417938,553.091980 278.444641,553.260071 287.468170,553.171021 
	C288.983002,553.156128 290.485870,551.931030 292.512939,551.109497 
	C292.686676,551.158691 292.860443,551.207886 293.518066,551.851196 
	C301.007721,551.911316 308.497406,551.971436 316.239197,551.680969 
	C315.785675,551.415100 315.332184,551.149170 314.554352,550.331238 
	C309.229614,545.451050 303.904877,540.570801 298.149261,535.659363 
	C297.840790,535.460144 297.788269,535.208130 298.085236,534.960938 
z"/>
<path fill="#FFFFFF" opacity="1.000000" stroke="none" 
	d="
M262.002716,598.004822 
	C256.591217,597.881165 251.238892,597.195251 247.171997,602.570740 
	C246.434830,603.545105 241.545349,602.074707 239.059097,600.791016 
	C237.323105,599.894836 236.416336,597.392517 235.139191,595.607605 
	C236.428543,594.751099 237.641296,593.334717 239.022034,593.145813 
	C242.747421,592.635925 244.519547,590.532104 246.353973,587.390747 
	C248.636520,583.481873 251.616745,579.618347 255.207474,576.972717 
	C257.326874,575.411133 261.206635,576.132629 264.301575,576.026001 
	C268.988617,575.864380 273.440186,576.311829 277.821655,573.003174 
	C280.168488,571.230957 284.717621,571.773254 288.157471,572.200439 
	C292.592743,572.751160 298.132843,568.853760 298.280609,564.313354 
	C298.300537,563.700745 298.410889,563.091125 299.611084,562.088928 
	C300.626740,564.746094 301.186462,567.726135 302.778931,569.974792 
	C304.577728,572.514771 307.304657,574.397400 309.599091,577.059509 
	C308.976868,577.711853 308.383545,577.870605 307.336792,578.059082 
	C291.410980,578.092102 275.938263,578.048096 260.466949,578.176331 
	C259.021515,578.188354 257.585083,579.289612 255.878174,580.069824 
	C254.479172,581.538025 253.346451,582.821411 251.913361,584.188843 
	C251.088867,584.882263 250.564774,585.491577 250.023590,586.324280 
	C250.006516,586.547668 250.014435,586.995667 249.745972,587.129272 
	C249.002365,587.883301 248.527222,588.503784 247.977325,589.463135 
	C246.981491,591.597839 246.060394,593.393494 244.912811,595.630676 
	C246.756531,595.808960 247.871231,595.916748 249.454117,596.059570 
	C263.857330,596.046509 277.792603,596.028931 291.726959,595.904785 
	C293.172760,595.891907 294.612915,595.246033 296.037079,594.941650 
	C296.018463,594.989502 295.923065,594.951660 296.179901,595.278503 
	C297.299103,594.701294 298.161469,593.797241 299.014130,592.941406 
	C299.004395,592.989624 298.908234,592.969055 299.182556,593.176392 
	C300.252594,592.630310 301.048340,591.876831 302.164490,590.986023 
	C305.956635,587.816833 309.244507,584.531250 312.961884,581.838501 
	C315.626862,579.908081 314.234924,578.722534 312.947815,577.186829 
	C313.732147,576.796448 314.516449,576.406067 315.703064,576.358582 
	C317.403137,577.467651 318.700958,578.233826 320.067749,579.335754 
	C321.917480,584.548340 326.528564,582.975708 330.087463,584.359253 
	C335.343109,588.210938 338.470093,587.982300 340.271606,583.786255 
	C345.150970,580.442566 349.669464,577.167053 354.398285,574.230164 
	C357.998474,571.994324 363.654022,573.637756 364.655121,576.979980 
	C363.202545,577.250854 362.102631,577.514893 360.628052,577.839966 
	C358.881500,578.239990 357.509613,578.578979 356.137726,578.917969 
	C349.563843,584.946899 343.056488,591.050537 336.399414,596.986206 
	C327.858124,604.601990 319.342499,612.260315 310.507751,619.525757 
	C307.388367,622.091003 307.526733,624.125488 309.331024,627.115723 
	C318.826874,642.852905 328.370697,658.563477 337.651794,674.427246 
	C349.053040,693.914978 360.121338,713.597229 371.495605,733.100952 
	C389.386475,763.778687 407.484924,794.335510 425.362305,825.021118 
	C445.327148,859.289551 465.126923,893.653992 485.040497,927.952332 
	C488.335083,933.626770 491.844208,939.176758 495.908295,945.859985 
	C497.402802,942.492493 498.504791,940.061890 499.564728,937.613159 
	C509.066101,915.661255 522.981567,896.629517 541.187012,881.496094 
	C557.569702,867.877808 575.675537,856.327209 593.072632,843.936646 
	C604.740906,835.626221 617.071716,828.135986 628.088318,819.045410 
	C646.686157,803.699463 662.307190,785.584534 673.455444,763.968018 
	C680.904541,749.524048 684.995117,734.025879 682.697144,717.965942 
	C681.420044,709.040894 677.732483,699.942078 673.071960,692.154053 
	C667.541138,682.911804 659.644653,675.107788 653.139160,666.406982 
	C651.850830,664.683838 651.157471,661.239136 651.990417,659.406982 
	C659.174133,643.605835 665.016541,627.405945 668.354858,610.335571 
	C669.070129,606.678223 669.002075,601.304749 671.267944,599.896484 
	C674.319092,598.000244 679.282593,599.134827 683.426941,599.058105 
	C686.925171,598.993286 690.427307,599.123596 693.924744,599.042358 
	C697.084778,598.969055 698.544189,599.659668 697.477783,603.404846 
	C692.903870,619.467957 688.675537,635.629578 684.104614,651.693604 
	C683.037170,655.444824 683.024658,658.175110 685.646790,661.665833 
	C695.037354,674.167358 703.867004,687.194031 707.319824,702.771545 
	C712.225403,724.902527 710.249084,746.403564 701.285522,767.470032 
	C690.146606,793.648865 672.091187,814.484985 651.703491,833.529175 
	C644.119812,840.613220 635.611816,846.785583 627.124329,852.808594 
	C607.317993,866.864075 586.995117,880.205627 567.445618,894.602417 
	C559.047180,900.787292 552.049988,908.875000 544.416199,916.098145 
	C544.919922,916.682251 545.423706,917.266296 545.927429,917.850403 
	C547.306885,916.732727 548.587646,915.457581 550.081177,914.521973 
	C563.835632,905.905273 577.478088,897.095886 591.441162,888.829102 
	C614.308105,875.290833 639.298157,865.325806 660.450012,848.946899 
	C674.098816,838.377991 687.889954,827.657227 699.766541,815.235107 
	C710.450134,804.061035 719.592651,791.068787 727.622437,777.794189 
	C736.546509,763.041077 744.501038,747.484131 750.896851,731.485352 
	C756.351013,717.841980 759.109802,703.104248 762.695984,688.759460 
	C763.022095,687.455200 761.061035,684.880493 759.522644,683.921326 
	C749.005859,677.364075 740.643066,669.000122 735.307617,657.641113 
	C728.369019,642.869019 727.057434,627.772400 731.869629,612.165222 
	C732.457214,610.259644 733.250366,608.407959 733.712341,606.474915 
	C735.615723,598.510559 734.058960,599.141663 743.560059,599.075500 
	C750.008667,599.030579 756.457764,599.066895 763.446411,599.066895 
	C761.532043,605.886414 759.738831,611.833496 758.202209,617.846130 
	C755.558105,628.192200 755.222778,638.337830 760.941711,647.997192 
	C765.885193,656.346741 773.465149,661.036865 782.392273,663.855286 
	C785.999878,664.994324 789.768066,665.624939 794.300354,666.682251 
	C793.335571,673.128662 792.468567,679.636536 791.373535,686.105835 
	C788.048035,705.751343 782.807800,724.825989 775.621887,743.469421 
	C769.934082,758.226135 763.195129,772.373413 755.470703,786.125854 
	C742.129089,809.878967 724.705994,830.389709 704.825989,848.755676 
	C687.028870,865.197388 666.948181,878.559326 645.718384,890.301453 
	C621.655579,903.610535 597.455444,916.767944 574.165161,931.349182 
	C552.447327,944.946106 535.288513,963.537231 523.809753,986.712708 
	C517.763855,998.919189 513.616821,1011.851318 512.871155,1025.655640 
	C512.740967,1028.066162 512.530151,1030.564209 511.777618,1032.829468 
	C510.367035,1037.075439 508.230896,1040.581055 502.684479,1040.001953 
	C499.222839,1039.640503 495.688843,1040.040039 492.194000,1039.913208 
	C486.888275,1039.720581 485.046234,1037.762451 485.035217,1032.592407 
	C485.011993,1021.685791 484.910065,1010.778442 485.016937,999.873047 
	C485.052277,996.264404 486.002411,992.644226 485.840302,989.060669 
	C485.709686,986.173950 485.139404,982.985718 483.724609,980.530151 
	C473.735199,963.192871 463.469330,946.015076 453.306824,928.777344 
	C443.332977,911.859741 433.297821,894.977539 423.439880,877.992554 
	C416.384949,865.837097 409.665131,853.487427 402.636841,841.316162 
	C395.036224,828.153809 387.242340,815.103088 379.548431,801.994446 
	C371.343018,788.014282 363.160187,774.020874 354.959808,760.037781 
	C342.323944,738.491333 329.607513,716.991699 317.065094,695.390930 
	C306.830322,677.764282 296.792603,660.023132 286.684296,642.323181 
	C283.970093,637.570557 280.937805,632.948486 278.758362,627.957825 
	C277.067932,624.086914 274.272064,622.976135 270.710968,623.014465 
	C258.571564,623.145020 246.434875,623.521362 234.295502,623.667358 
	C221.557327,623.820557 208.817200,623.851135 196.078156,623.824768 
	C194.882996,623.822266 193.689499,623.027161 191.593719,622.277527 
	C195.796082,616.589294 199.596588,611.445068 203.704102,606.161865 
	C202.843628,608.844360 201.554504,611.623840 200.560440,614.505066 
	C200.069275,615.928650 199.526382,617.842590 200.102982,618.978088 
	C200.639832,620.035278 202.620178,620.884827 203.983093,620.911743 
	C212.610046,621.081970 221.241974,620.997986 229.872269,620.998291 
	C234.307846,620.998474 238.756958,621.210510 243.174301,620.926941 
	C246.200714,620.732727 249.164841,619.707825 252.190918,619.321777 
	C254.301483,619.052612 256.497437,619.011780 258.605896,619.270752 
	C261.794830,619.662354 264.940765,620.403809 268.938110,620.985840 
	C273.166077,620.674500 276.559662,617.649231 279.953125,621.108398 
	C282.913666,624.126221 285.980133,627.040161 289.083557,630.346680 
	C290.566986,630.826050 292.022400,631.272461 293.356567,631.035706 
	C298.465271,630.129089 300.172150,625.438721 303.260010,621.786499 
	C304.937134,619.224976 306.353760,616.879333 307.770386,614.533752 
	C307.370453,614.242004 306.970551,613.950256 306.570618,613.658508 
	C315.526062,610.394409 315.526062,610.394409 315.153564,602.654724 
	C317.024200,598.084534 314.926514,596.974365 311.117371,596.970459 
	C308.572601,596.967834 306.029205,596.528625 303.482605,596.497314 
	C302.994232,596.491333 302.493683,597.475220 301.726013,598.139709 
	C299.302521,598.184631 297.151764,598.092285 294.750427,598.000122 
	C294.332855,598.000671 294.165802,598.001160 293.665802,598.002075 
	C292.888855,598.002136 292.444885,598.001892 291.750671,598.001160 
	C291.333649,598.000916 291.166840,598.001160 290.750000,598.001709 
	C290.500000,598.002075 290.000031,598.002441 289.749786,598.002075 
	C289.332703,598.001953 289.165894,598.002197 288.624329,598.002563 
	C287.500153,598.002563 286.750702,598.002502 285.625916,598.001465 
	C284.499756,598.001160 283.748962,598.001770 282.749023,598.002686 
	C282.499817,598.003052 282.001465,598.002441 281.750793,598.002075 
	C281.333008,598.001953 281.165894,598.002197 280.749603,598.002686 
	C280.500427,598.002869 280.002106,598.002441 279.750916,598.002136 
	C279.332214,598.002014 279.164734,598.002258 278.748718,598.002808 
	C278.500153,598.003174 278.003052,598.002441 277.602325,598.001587 
	C276.132904,598.002075 275.064209,598.003479 273.663452,598.004883 
	C272.888672,598.004517 272.445953,598.004211 271.585999,598.002808 
	C269.778107,598.001892 268.387451,598.002197 266.747986,598.002869 
	C266.499207,598.003296 266.001648,598.002441 265.750793,598.002075 
	C265.332703,598.001953 265.165466,598.002197 264.751892,598.099854 
	C263.671326,598.133118 262.837006,598.068970 262.002716,598.004822 
M299.888153,654.345886 
	C300.233917,655.783203 300.579712,657.220520 300.912628,658.604492 
	C305.457520,656.657837 309.677887,654.796326 313.941895,653.040833 
	C317.364075,651.631897 318.444885,649.381531 316.829315,645.959351 
	C314.442383,640.903442 308.865143,636.626709 306.199982,637.835144 
	C306.055237,637.900757 305.950836,638.052063 305.821869,638.156372 
	C303.028503,640.416504 300.515533,643.257690 297.365265,644.779602 
	C293.857971,646.474121 295.061310,648.198975 296.347687,650.184204 
	C297.201050,651.501099 298.429718,652.574829 299.888153,654.345886 
z"/>
<path fill="#FFFFFF" opacity="1.000000" stroke="none" 
	d="
M763.993896,577.897400 
	C763.250854,577.904541 762.507751,577.911621 761.286194,577.780518 
	C760.472290,577.468811 760.195618,577.550659 759.977722,577.887756 
	C756.297363,577.899780 752.617065,577.911743 748.371765,577.782349 
	C747.474365,577.467407 747.199463,577.547668 746.982239,577.881714 
	C743.873474,577.828003 740.764709,577.774231 737.054443,577.826904 
	C736.452881,577.933289 735.999146,577.799438 735.656189,577.569336 
	C728.531189,577.221741 721.748535,577.006226 714.967468,577.046631 
	C712.928162,577.058777 710.893066,577.783081 708.555542,578.200928 
	C707.864685,578.143921 707.474487,578.067200 707.084229,577.990417 
	C706.624329,577.952209 706.164429,577.914062 705.250000,577.737244 
	C704.466187,577.443665 704.194824,577.526733 703.981262,577.847778 
	C701.613037,577.874695 699.244812,577.901611 696.155151,577.684937 
	C693.286926,577.590332 691.140198,577.739319 688.616577,577.890930 
	C687.489929,577.888306 686.740112,577.883118 685.659790,577.631104 
	C674.883728,577.243042 664.438171,577.101929 653.977600,576.592712 
	C653.265686,575.527161 652.568848,574.829712 651.872009,574.132263 
	C651.250427,575.076294 650.628845,576.020325 649.538269,576.973816 
	C628.046997,576.978210 607.024841,576.973145 586.041626,576.643311 
	C585.570740,574.714905 585.060913,573.111328 584.494812,571.330872 
	C588.140320,569.841003 594.171143,570.656067 596.225464,573.353455 
	C598.673096,570.759155 598.673096,570.759155 603.348083,573.072876 
	C606.028320,572.218628 609.152649,570.607178 609.617188,571.174316 
	C612.718079,574.959961 616.683044,572.959900 620.541199,574.000610 
	C620.541199,571.739746 620.541199,570.063354 620.541199,568.386963 
	C620.788879,568.004456 621.036499,567.621948 621.284180,567.239441 
	C626.082642,573.715515 632.193237,575.226685 639.234619,573.215942 
	C632.667725,568.733093 630.903687,564.444031 632.808350,555.386108 
	C629.750061,556.374695 627.126648,556.769836 625.014709,558.025269 
	C622.620483,559.448547 620.877258,559.857300 618.270630,558.296448 
	C613.721008,555.571960 608.897949,556.551941 605.534546,560.090698 
	C605.040833,560.610168 604.088745,560.778381 603.313660,560.929871 
	C601.181885,561.346436 599.031616,561.667969 596.674194,562.062988 
	C594.371643,557.972778 581.746887,553.995728 575.317566,556.607056 
	C580.116455,558.976929 584.190369,560.988831 588.264221,563.000732 
	C588.032898,563.666138 587.801575,564.331543 587.570251,564.996948 
	C583.641357,564.996948 579.712463,564.996948 575.896606,564.996948 
	C574.662842,563.069031 573.308167,561.013245 572.020325,558.916504 
	C571.259094,557.677185 570.603394,556.372925 569.900269,555.097900 
	C568.798401,556.055725 567.708008,557.027344 566.584839,557.959534 
	C566.364807,558.142090 566.017944,558.171753 565.675110,558.290833 
	C565.173035,557.314697 564.673584,556.343567 564.178589,555.381165 
	C559.310364,557.669678 552.845520,556.601379 549.480347,553.020386 
	C568.718750,553.011475 587.489380,553.009277 606.259949,553.006775 
	C640.952209,553.002075 675.644592,553.024353 710.336548,552.918640 
	C712.224426,552.912903 714.109009,551.837219 716.416992,551.168457 
	C718.560364,551.132446 720.281860,551.187561 722.117676,551.573975 
	C724.568909,552.228882 726.902771,552.807678 729.243347,552.835999 
	C748.781189,553.072388 768.320007,553.261902 787.859009,553.354370 
	C801.416565,553.418579 814.976440,553.416992 828.532043,553.220459 
	C834.013794,553.141052 839.486877,552.464355 845.389771,552.042725 
	C847.240112,552.017334 848.664551,552.008667 850.416992,552.035583 
	C854.004517,552.039856 857.265686,551.928345 860.523010,551.996948 
	C864.871094,552.088501 865.576294,549.763306 864.563538,546.198730 
	C863.175903,541.314575 861.502136,536.492126 860.455627,531.536682 
	C859.590088,527.437927 859.456177,523.184692 859.110291,518.951416 
	C859.222534,518.903015 859.239868,518.604980 859.239868,518.604980 
	C859.239868,518.604980 859.000122,519.001709 858.748352,518.752930 
	C855.256592,513.829346 852.582336,508.996185 851.705505,503.171143 
	C851.326599,500.653748 849.384705,498.371613 848.152832,495.982574 
	C848.152832,495.982574 848.055237,495.541016 848.011597,494.956390 
	C848.651245,490.640778 853.712891,489.173248 857.010864,492.615387 
	C859.235291,494.937012 860.951355,493.967865 863.033142,493.932037 
	C863.033142,493.932037 863.027771,493.983582 863.077515,494.289032 
	C863.781921,495.025024 864.436584,495.455566 865.091309,495.886108 
	C865.091309,495.886108 865.018127,495.971252 865.100220,496.295197 
	C867.486206,497.702637 869.790222,498.786133 872.094177,499.869598 
	C872.094177,499.869598 872.047119,499.942108 872.086853,500.268127 
	C872.862793,502.342529 873.598999,504.090881 874.252136,505.641968 
	C879.199280,504.739990 881.895508,508.239380 885.163696,510.626648 
	C886.583008,511.663483 888.353333,512.231995 889.990906,512.952393 
	C890.734253,513.279419 891.965088,513.224060 892.252930,513.742737 
	C894.073242,517.022888 900.003296,515.291443 900.312317,520.383789 
	C900.322388,520.549927 901.514526,520.595398 902.129944,520.781921 
	C905.109131,521.684875 908.249084,522.274841 911.002441,523.640381 
	C913.459900,524.859253 915.249634,527.521973 917.744995,528.549683 
	C928.162537,532.840027 937.713013,538.468506 946.616272,545.359009 
	C948.750305,547.010620 952.737061,546.809692 954.166992,548.730103 
	C958.809753,554.965820 965.378967,555.302917 972.010254,555.992004 
	C972.010254,555.992004 972.000000,556.000000 972.068542,556.331665 
	C974.026001,558.214661 975.926514,559.752075 977.801453,561.320068 
	C982.206604,565.003784 982.260986,565.483704 977.238098,568.643066 
	C974.206787,570.549805 970.965088,572.220337 967.630432,573.513550 
	C965.249756,574.437012 962.528503,574.443298 960.016174,575.082703 
	C958.744507,575.406311 956.713989,576.039673 956.542969,576.852173 
	C955.573669,581.458008 952.323120,581.752380 949.100037,582.206665 
	C945.770813,585.443970 942.020996,588.094116 938.351746,590.851379 
	C934.850464,593.482544 931.433044,596.225281 927.978821,598.918945 
	C927.978821,598.918945 927.607910,599.023743 927.171509,599.168640 
	C926.485413,599.560425 926.235779,599.807251 925.986145,600.054138 
	C915.242188,606.238892 904.483215,612.397888 893.757874,618.614746 
	C879.304688,626.992310 864.885437,635.428284 850.427368,643.797424 
	C848.866760,644.700745 847.146118,645.327759 844.571960,646.508667 
	C844.571960,644.447876 844.233459,642.929016 844.622742,641.627991 
	C850.431152,622.218323 856.366821,602.846741 862.147156,583.428833 
	C862.532349,582.134827 861.909668,580.540833 861.261536,578.618286 
	C853.849854,578.080261 846.932373,578.010254 840.014832,577.940247 
	C839.264465,577.925842 838.514099,577.911438 837.282227,577.760498 
	C836.471313,577.459290 836.199402,577.540100 835.984985,577.866577 
	C819.307190,577.872803 802.629456,577.879089 785.376587,577.745544 
	C784.473938,577.442688 784.200012,577.520325 783.979797,577.838623 
	C782.917969,577.859436 781.856079,577.880188 780.120728,577.660278 
	C777.629822,577.576233 775.812378,577.732788 773.994934,577.889404 
	C772.283875,577.904541 770.572876,577.919617 768.198730,577.702148 
	C766.355042,577.612183 765.174438,577.754761 763.993896,577.897400 
M713.282043,569.418701 
	C715.993774,568.937012 718.705505,568.455322 721.427551,567.971741 
	C721.356567,569.288757 721.246948,571.323486 721.096924,574.107178 
	C724.446960,572.551392 727.028076,571.352722 729.714294,570.105225 
	C727.934143,565.940308 725.422729,563.611633 720.807800,564.471008 
	C719.920715,564.636230 718.840088,564.329285 717.975159,563.950989 
	C713.430481,561.963501 708.298218,560.660583 704.563416,557.642883 
	C699.622437,553.650452 698.696899,556.768188 697.413391,560.237244 
	C690.024963,554.934937 693.176575,564.938110 689.690002,565.392029 
	C693.986511,564.780579 698.487305,569.282532 702.168030,564.484009 
	C704.701111,565.234497 707.060913,565.933594 709.484314,566.651550 
	C709.602478,567.962952 709.720154,569.269287 709.865662,570.884705 
	C711.094238,570.363342 711.848572,570.043213 713.282043,569.418701 
M844.595093,568.897034 
	C841.397522,564.887756 838.199951,560.878479 834.671204,556.453979 
	C832.724060,558.624512 830.723694,560.099243 829.858154,562.071960 
	C829.231323,563.500610 830.109497,565.589539 830.316589,567.384033 
	C835.021729,565.451904 836.542114,570.145020 839.197998,572.012878 
	C842.959106,574.657898 845.985046,574.859253 849.448914,571.856079 
	C847.872009,571.002258 846.464539,570.240234 844.595093,568.897034 
M767.545288,571.428162 
	C770.640198,571.857239 773.724487,572.517944 776.832581,572.661255 
	C781.510254,572.876953 785.796753,568.407776 786.003906,562.935730 
	C784.047241,564.328064 782.122864,565.318970 780.693176,566.790466 
	C777.301270,570.281433 771.380859,569.061218 770.027100,564.190857 
	C768.504089,558.711670 763.359314,558.748718 759.481445,556.505371 
	C762.814087,560.685303 766.597900,564.413086 766.285828,570.192810 
	C766.273987,570.411560 766.729980,570.655518 767.545288,571.428162 
M677.666870,561.904541 
	C675.445496,560.573914 673.224121,559.243347 670.187805,557.424561 
	C670.595886,562.224976 672.821045,564.059998 675.926392,564.802246 
	C676.471069,564.932434 677.460632,563.201538 677.666870,561.904541 
M681.957153,572.626099 
	C682.884399,573.316162 683.811707,574.006226 684.738953,574.696289 
	C685.057861,574.191467 685.376770,573.686707 685.695679,573.181885 
	C684.353821,571.407776 683.011963,569.633606 681.670105,567.859497 
	C681.225281,568.204285 680.780518,568.549133 680.335754,568.893982 
	C680.822937,569.906067 681.310120,570.918152 681.957153,572.626099 
M816.037964,561.208374 
	C814.431946,561.646606 812.825928,562.084778 809.976562,562.862305 
	C815.327576,565.042908 816.938171,564.416504 816.037964,561.208374 
M673.543457,569.871155 
	C672.907715,569.978027 672.255798,570.037842 671.654846,570.245422 
	C671.570435,570.274597 671.735657,571.026611 671.785339,571.444031 
	C672.383179,571.108093 672.981018,570.772156 673.543457,569.871155 
M657.492065,571.798767 
	C657.800781,571.495361 658.109558,571.191956 658.418274,570.888550 
	C658.036682,570.676636 657.655029,570.464783 657.273438,570.252869 
	C657.165588,570.727356 657.057800,571.201843 657.492065,571.798767 
M824.171509,563.530457 
	C824.105225,563.186523 824.038940,562.842590 823.972717,562.498657 
	C823.895325,562.840515 823.817993,563.182373 824.171509,563.530457 
M657.469482,556.171448 
	C657.813354,556.105225 658.157166,556.039001 658.501038,555.972778 
	C658.159302,555.895447 657.817627,555.818115 657.469482,556.171448 
M697.469299,570.171509 
	C697.813293,570.105286 698.157288,570.039062 698.501282,569.972839 
	C698.159424,569.895386 697.817566,569.817993 697.469299,570.171509 
z"/>
<path fill="#FFFFFF" opacity="1.000000" stroke="none" 
	d="
M203.001221,508.014404 
	C204.650024,511.054260 207.650101,513.863770 203.617523,517.518188 
	C202.971466,518.103699 203.736694,521.130127 204.679108,522.423828 
	C207.872421,526.807312 211.438339,530.919434 214.859268,535.131958 
	C221.115280,531.934326 225.481888,532.132324 227.382431,536.109619 
	C228.006439,537.415466 227.751312,539.879578 226.873291,541.035461 
	C223.332092,545.697205 223.084625,548.194214 226.551651,552.917786 
	C228.605026,555.715454 230.682983,558.494995 232.739777,561.290100 
	C235.139725,564.551636 234.123444,567.213379 228.347504,571.929321 
	C227.981628,571.984375 227.922028,571.928162 227.917908,571.636536 
	C227.889114,571.152039 227.864456,570.959167 227.839798,570.766296 
	C231.587570,566.837769 230.888611,563.427856 227.758926,559.090942 
	C217.225128,544.493896 207.180115,529.544067 197.192795,514.138672 
	C197.548630,511.873047 197.659790,510.197937 197.804703,508.014404 
	C199.533295,508.014404 201.267258,508.014404 203.001221,508.014404 
z"/>
<path fill="#FFFFFF" opacity="1.000000" stroke="none" 
	d="
M971.862915,555.681274 
	C965.378967,555.302917 958.809753,554.965820 954.166992,548.730103 
	C952.737061,546.809692 948.750305,547.010620 946.616272,545.359009 
	C937.713013,538.468506 928.162537,532.840027 917.744995,528.549683 
	C915.249634,527.521973 913.459900,524.859253 911.002441,523.640381 
	C908.249084,522.274841 905.109131,521.684875 902.129944,520.781921 
	C901.514526,520.595398 900.322388,520.549927 900.312317,520.383789 
	C900.003296,515.291443 894.073242,517.022888 892.252930,513.742737 
	C891.965088,513.224060 890.734253,513.279419 889.990906,512.952393 
	C888.353333,512.231995 886.583008,511.663483 885.163696,510.626648 
	C881.895508,508.239380 879.199280,504.739990 874.252136,505.641968 
	C873.598999,504.090881 872.862793,502.342529 872.125488,500.248718 
	C879.005859,503.371246 886.002991,506.629883 892.743530,510.353241 
	C904.837463,517.033691 916.780457,523.987793 928.780518,530.838013 
	C943.095520,539.009766 957.404175,547.192566 971.862915,555.681274 
z"/>
<path fill="#FFFFFF" opacity="1.000000" stroke="none" 
	d="
M715.995117,551.259521 
	C714.109009,551.837219 712.224426,552.912903 710.336548,552.918640 
	C675.644592,553.024353 640.952209,553.002075 606.259949,553.006775 
	C587.489380,553.009277 568.718750,553.011475 549.022156,553.012329 
	C544.400024,552.429016 540.703857,551.847290 537.469727,551.185425 
	C561.615662,551.070740 585.299622,551.036072 608.983521,551.001465 
	C609.155273,550.998474 609.327026,550.995422 610.020142,551.267578 
	C612.422119,551.338013 614.302856,551.133362 616.183594,550.928650 
	C616.183594,550.928650 616.603516,550.922363 617.276367,550.996277 
	C650.631165,551.133301 683.313171,551.196411 715.995117,551.259521 
z"/>
<path fill="#FFFFFF" opacity="1.000000" stroke="none" 
	d="
M586.002625,576.968140 
	C607.024841,576.973145 628.046997,576.978210 649.548462,577.199829 
	C650.027649,577.416443 650.058289,577.867065 650.058289,577.867065 
	C645.632202,578.229431 641.206055,578.591797 636.047241,578.613037 
	C632.163330,578.157959 629.012207,577.944458 625.861023,577.944824 
	C572.057556,577.951233 518.254028,578.018127 464.450531,577.999023 
	C429.967896,577.986755 395.485321,577.856323 361.002716,577.778931 
	C362.102631,577.514893 363.202545,577.250854 365.122192,576.985779 
	C371.623779,576.981018 377.305603,576.977356 383.241150,576.978760 
	C383.663971,576.981384 383.833099,576.978821 384.334595,576.978394 
	C385.110016,576.974792 385.553101,576.969116 386.465088,576.974609 
	C396.289337,576.984009 405.644684,576.982239 415.462219,576.985291 
	C423.282562,576.980774 430.640686,576.971375 438.415833,576.970154 
	C440.223145,576.974792 441.613464,576.971252 443.335785,576.975342 
	C444.110565,576.977356 444.553284,576.971863 445.330322,576.970947 
	C446.110229,576.970581 446.555908,576.965637 447.429321,576.971008 
	C450.240692,576.663574 452.624329,576.345886 455.444092,576.026245 
	C460.254028,576.338318 464.627838,576.652344 469.469910,576.975586 
	C478.294189,576.665222 486.650177,576.345642 495.388489,576.035034 
	C497.514496,576.352844 499.258148,576.661804 501.448853,576.977539 
	C510.263763,576.978455 518.631592,576.972534 527.427917,576.974487 
	C529.570923,576.979065 531.285461,576.975769 533.468506,576.980347 
	C540.957214,576.976501 547.977417,576.964783 555.372803,576.962280 
	C556.498718,576.968811 557.249329,576.966125 558.458374,576.973145 
	C565.276978,576.976990 571.637268,576.971069 578.441895,576.972778 
	C581.258301,576.976257 583.630493,576.972229 586.002625,576.968140 
z"/>
<path fill="#FFFFFF" opacity="1.000000" stroke="none" 
	d="
M360.628052,577.839905 
	C395.485321,577.856323 429.967896,577.986755 464.450531,577.999023 
	C518.254028,578.018127 572.057556,577.951233 625.861023,577.944824 
	C629.012207,577.944458 632.163330,578.157959 635.575928,578.585999 
	C542.909668,578.927673 449.982117,578.955322 356.596130,578.950439 
	C357.509613,578.578979 358.881500,578.239990 360.628052,577.839905 
z"/>
<path fill="#FFFFFF" opacity="1.000000" stroke="none" 
	d="
M608.825439,550.588562 
	C585.299622,551.036072 561.615662,551.070740 537.210083,551.109497 
	C536.315002,551.163818 536.141663,551.213928 535.509888,551.183960 
	C530.363281,551.116333 525.675110,551.128784 520.742371,551.060547 
	C520.338318,551.043518 520.178894,551.107178 519.552490,551.114441 
	C503.973419,551.123047 488.861237,551.187988 473.401855,551.166138 
	C472.346283,551.138916 471.637878,551.198486 470.535400,551.177979 
	C464.765106,551.137512 459.388885,551.177063 453.680420,551.115845 
	C452.894165,551.079224 452.440125,551.143433 451.590149,551.132935 
	C450.124329,551.118469 449.054413,551.178650 447.744751,551.161133 
	C447.345367,551.135742 447.185699,551.188049 446.561462,551.163086 
	C422.735260,551.151184 399.373627,551.216553 376.011993,551.281921 
	C369.848145,551.138977 363.684296,550.996033 357.328735,550.471069 
	C396.234711,550.057556 435.332367,550.012939 474.430023,549.998169 
	C517.351135,549.981995 560.272217,549.991089 603.193359,550.000427 
	C605.018066,550.000854 606.842712,550.114685 608.825439,550.588562 
z"/>
<path fill="#FFFFFF" opacity="1.000000" stroke="none" 
	d="
M928.308472,598.814575 
	C931.433044,596.225281 934.850464,593.482544 938.351746,590.851379 
	C942.020996,588.094116 945.770813,585.443970 949.100037,582.206665 
	C952.323120,581.752380 955.573669,581.458008 956.542969,576.852173 
	C956.713989,576.039673 958.744507,575.406311 960.016174,575.082703 
	C962.528503,574.443298 965.249756,574.437012 967.630432,573.513550 
	C970.965088,572.220337 974.206787,570.549805 977.238098,568.643066 
	C982.260986,565.483704 982.206604,565.003784 977.801453,561.320068 
	C975.926514,559.752075 974.026001,558.214661 972.072388,556.325317 
	C977.016235,558.444885 982.024841,560.902588 988.746216,564.200684 
	C968.249512,576.748230 948.220764,587.358032 928.308472,598.814575 
z"/>
<path fill="#FFFFFF" opacity="1.000000" stroke="none" 
	d="
M228.011292,572.012634 
	C226.858215,575.415466 225.675461,578.789978 224.650970,581.712952 
	C224.967163,585.042786 225.862595,588.367188 225.235687,591.374268 
	C225.032242,592.350098 220.844421,592.495361 217.612091,593.213013 
	C217.422760,600.429688 208.665207,600.762268 204.358566,605.937378 
	C204.033066,605.840515 204.038223,605.670715 204.243240,605.102173 
	C204.592850,604.403931 204.742584,604.104614 204.892334,603.805237 
	C212.161606,593.411377 219.430878,583.017456 227.076019,572.301025 
	C227.451920,571.978577 227.922028,571.928162 227.922028,571.928162 
	C227.922028,571.928162 227.981628,571.984375 228.011292,572.012634 
z"/>
<path fill="#FFFFFF" opacity="1.000000" stroke="none" 
	d="
M203.469742,508.009888 
	C201.267258,508.014404 199.533295,508.014404 197.804703,508.014404 
	C197.659790,510.197937 197.548630,511.873047 197.157471,513.781799 
	C195.352417,511.542755 193.827362,509.070038 192.638733,506.310852 
	C195.978821,506.084137 198.982483,506.143951 202.200333,506.396179 
	C203.280762,506.463593 204.147003,506.338531 205.407364,506.154541 
	C206.860321,506.134644 207.919159,506.173676 209.078613,506.346832 
	C209.459702,506.405365 209.740158,506.329742 210.482239,506.188477 
	C215.956696,506.157227 220.969528,506.191589 226.082748,506.361023 
	C226.460831,506.406067 226.738510,506.316040 227.440552,506.174683 
	C229.569611,506.141632 231.274277,506.159973 233.077515,506.321869 
	C233.457764,506.369324 233.739426,506.273193 234.488495,506.151367 
	C248.956772,506.161346 262.957611,506.197021 276.953918,506.432251 
	C276.949341,506.631836 276.995453,507.028412 276.995453,507.028381 
	C275.087006,507.352966 273.179382,507.954254 271.269989,507.959930 
	C248.826233,508.026825 226.382217,508.004303 203.469742,508.009888 
z"/>
<path fill="#FFFFFF" opacity="1.000000" stroke="none" 
	d="
M844.963867,552.059448 
	C839.486877,552.464355 834.013794,553.141052 828.532043,553.220459 
	C814.976440,553.416992 801.416565,553.418579 787.859009,553.354370 
	C768.320007,553.261902 748.781189,553.072388 729.243347,552.835999 
	C726.902771,552.807678 724.568909,552.228882 722.580566,551.500366 
	C728.282898,551.063782 733.636597,551.032043 738.990356,551.000305 
	C739.157776,550.994446 739.325134,550.988586 740.053223,551.279297 
	C742.424377,551.716797 744.234558,551.978394 746.045166,551.980896 
	C779.018066,552.025635 811.990967,552.039246 844.963867,552.059448 
z"/>
<path fill="#FFFFFF" opacity="1.000000" stroke="none" 
	d="
M848.092163,496.376526 
	C849.384705,498.371613 851.326599,500.653748 851.705505,503.171143 
	C852.582336,508.996185 855.256592,513.829346 858.748291,518.752075 
	C859.000000,519.000000 858.998047,518.999878 858.998047,518.999878 
	C859.456177,523.184692 859.590088,527.437927 860.455627,531.536682 
	C861.502136,536.492126 863.175903,541.314575 864.563538,546.198730 
	C865.576294,549.763306 864.871094,552.088501 860.523010,551.996948 
	C857.265686,551.928345 854.004517,552.039856 850.410645,551.778870 
	C850.063354,551.315857 850.050598,551.145203 850.037903,550.974487 
	C854.002197,550.974487 857.966431,550.974487 863.231079,550.974487 
	C859.058350,532.168884 852.723083,514.682007 848.092163,496.376526 
z"/>
<path fill="#FFFFFF" opacity="1.000000" stroke="none" 
	d="
M738.829712,550.588440 
	C733.636597,551.032043 728.282898,551.063782 722.466309,551.169067 
	C720.281860,551.187561 718.560364,551.132446 716.416992,551.168457 
	C683.313171,551.196411 650.631165,551.133301 617.482849,551.034424 
	C617.653931,550.663574 618.291443,550.035034 618.928772,550.035278 
	C658.842224,550.049744 698.755615,550.115540 738.829712,550.588440 
z"/>
<path fill="#FFFFFF" opacity="1.000000" stroke="none" 
	d="
M849.565552,550.964050 
	C850.050598,551.145203 850.063354,551.315857 850.082520,551.743286 
	C848.664551,552.008667 847.240112,552.017334 845.389771,552.042725 
	C811.990967,552.039246 779.018066,552.025635 746.045166,551.980896 
	C744.234558,551.978394 742.424377,551.716797 740.303711,551.297729 
	C776.360046,550.997681 812.726624,550.975647 849.565552,550.964050 
z"/>
<path fill="#FFFFFF" opacity="1.000000" stroke="none" 
	d="
M201.986160,506.203735 
	C198.982483,506.143951 195.978821,506.084137 192.529770,505.984192 
	C193.558273,505.273834 195.042099,504.004272 196.504486,504.028503 
	C208.040390,504.219727 219.570053,504.839447 231.105804,504.975189 
	C246.211853,505.152985 261.322174,505.062164 276.429169,504.923828 
	C278.022949,504.909241 279.606750,503.800049 281.589355,503.135681 
	C282.657745,505.888702 280.976532,506.250671 278.145630,506.065277 
	C277.303101,506.089233 277.130768,506.160950 276.958466,506.232697 
	C262.957611,506.197021 248.956772,506.161346 234.227814,506.050964 
	C233.326126,506.043640 233.152542,506.110992 232.978958,506.178314 
	C231.274277,506.159973 229.569611,506.141632 227.182098,506.064026 
	C226.326950,506.078522 226.154648,506.152252 225.982346,506.225952 
	C220.969528,506.191589 215.956696,506.157227 210.225388,506.082031 
	C209.330597,506.098358 209.154297,506.155548 208.978012,506.212708 
	C207.919159,506.173676 206.860321,506.134644 205.037872,506.041199 
	C203.511566,506.059113 202.748871,506.131439 201.986160,506.203735 
z"/>
<path fill="#FFFFFF" opacity="1.000000" stroke="none" 
	d="
M862.856079,493.638550 
	C860.951355,493.967865 859.235291,494.937012 857.010864,492.615387 
	C853.712891,489.173248 848.651245,490.640778 847.952515,494.738159 
	C846.570190,491.665466 845.203247,488.226410 843.836365,484.787354 
	C844.231262,484.335327 844.626160,483.883270 845.021057,483.431244 
	C850.906982,486.735840 856.792969,490.040466 862.856079,493.638550 
z"/>
<path fill="#FFFFFF" opacity="1.000000" stroke="none" 
	d="
M840.275696,578.226562 
	C846.932373,578.010254 853.849854,578.080261 860.900879,578.519104 
	C854.201782,578.762939 847.369202,578.637939 840.275696,578.226562 
z"/>
<path fill="#FFFFFF" opacity="1.000000" stroke="none" 
	d="
M685.990356,577.877991 
	C686.740112,577.883118 687.489929,577.888306 688.826660,578.000610 
	C689.725525,578.278015 689.870789,578.540527 689.849548,578.895142 
	C678.607483,578.886658 667.365479,578.878174 656.441528,578.324341 
	C666.503235,577.812012 676.246826,577.845032 685.990356,577.877991 
z"/>
<path fill="#FFFFFF" opacity="1.000000" stroke="none" 
	d="
M685.659790,577.631104 
	C676.246826,577.845032 666.503235,577.812012 656.289490,577.889526 
	C655.288025,578.103638 654.756836,578.207214 654.105957,577.882812 
	C653.986328,577.454773 653.992676,576.960876 653.992676,576.960815 
	C664.438171,577.101929 674.883728,577.243042 685.659790,577.631104 
z"/>
<path fill="#FFFFFF" opacity="1.000000" stroke="none" 
	d="
M735.999146,577.799438 
	C735.999146,577.799438 736.452881,577.933289 736.687622,577.959778 
	C733.004578,578.342163 729.091614,578.918579 725.168091,579.002441 
	C719.222351,579.129395 713.269226,578.913818 707.201782,578.417114 
	C707.474487,578.067200 707.864685,578.143921 709.027100,578.318115 
	C718.532532,578.210205 727.265869,578.004822 735.999146,577.799438 
z"/>
<path fill="#FFFFFF" opacity="1.000000" stroke="none" 
	d="
M872.061401,499.516083 
	C869.790222,498.786133 867.486206,497.702637 865.146484,496.263550 
	C867.416687,496.992798 869.722595,498.077698 872.061401,499.516083 
z"/>
<path fill="#FFFFFF" opacity="1.000000" stroke="none" 
	d="
M653.977600,576.592773 
	C653.992676,576.960876 653.986328,577.454773 653.990112,577.701172 
	C652.943115,577.939941 651.892395,577.932251 650.449951,577.895813 
	C650.058289,577.867065 650.027649,577.416443 650.017456,577.190430 
	C650.628845,576.020325 651.250427,575.076294 651.872009,574.132263 
	C652.568848,574.829712 653.265686,575.527161 653.977600,576.592773 
z"/>
<path fill="#FFFFFF" opacity="1.000000" stroke="none" 
	d="
M690.262451,578.924072 
	C689.870789,578.540527 689.725525,578.278015 689.203552,577.998047 
	C691.140198,577.739319 693.286926,577.590332 695.710876,577.686401 
	C694.217163,578.272034 692.446289,578.612549 690.262451,578.924072 
z"/>
<path fill="#FFFFFF" opacity="1.000000" stroke="none" 
	d="
M615.914001,550.689697 
	C614.302856,551.133362 612.422119,551.338013 610.276978,551.287964 
	C611.889893,550.839050 613.767151,550.644897 615.914001,550.689697 
z"/>
<path fill="#FFFFFF" opacity="1.000000" stroke="none" 
	d="
M774.422546,577.927979 
	C775.812378,577.732788 777.629822,577.576233 779.722534,577.645508 
	C778.281921,577.903137 776.566040,577.934875 774.422546,577.927979 
z"/>
<path fill="#FFFFFF" opacity="1.000000" stroke="none" 
	d="
M865.070190,495.556274 
	C864.436584,495.455566 863.781921,495.025024 863.095276,494.270111 
	C863.725220,494.372620 864.387146,494.799530 865.070190,495.556274 
z"/>
<path fill="#FFFFFF" opacity="1.000000" stroke="none" 
	d="
M764.393921,577.936035 
	C765.174438,577.754761 766.355042,577.612183 767.771240,577.689331 
	C766.935913,577.930908 765.864929,577.952759 764.393921,577.936035 
z"/>
<path fill="#FFFFFF" opacity="1.000000" stroke="none" 
	d="
M926.261597,600.019531 
	C926.235779,599.807251 926.485413,599.560425 926.991211,599.236694 
	C927.010681,599.434937 926.773926,599.709900 926.261597,600.019531 
z"/>
<path fill="#FFFFFF" opacity="1.000000" stroke="none" 
	d="
M204.668991,603.940063 
	C204.742584,604.104614 204.592850,604.403931 204.233963,604.847534 
	C204.165100,604.686157 204.305374,604.380493 204.668991,603.940063 
z"/>
<path fill="#FFFFFF" opacity="1.000000" stroke="none" 
	d="
M227.917908,571.636536 
	C227.922028,571.928162 227.451920,571.978577 227.215668,571.990479 
	C227.110352,571.680969 227.241287,571.359436 227.606003,570.902100 
	C227.864456,570.959167 227.889114,571.152039 227.917908,571.636536 
z"/>
<path fill="#FFFFFF" opacity="1.000000" stroke="none" 
	d="
M704.239746,577.873901 
	C704.194824,577.526733 704.466187,577.443665 704.904541,577.716614 
	C704.841858,577.856445 704.670044,577.878174 704.239746,577.873901 
z"/>
<path fill="#FFFFFF" opacity="1.000000" stroke="none" 
	d="
M747.241089,577.909180 
	C747.199463,577.547668 747.474365,577.467407 747.912842,577.767822 
	C747.845947,577.908569 747.672974,577.922546 747.241089,577.909180 
z"/>
<path fill="#FFFFFF" opacity="1.000000" stroke="none" 
	d="
M760.238525,577.914795 
	C760.195618,577.550659 760.472290,577.468811 760.914795,577.769836 
	C760.847717,577.912231 760.673523,577.927002 760.238525,577.914795 
z"/>
<path fill="#FFFFFF" opacity="1.000000" stroke="none" 
	d="
M836.242065,577.894043 
	C836.199402,577.540100 836.471313,577.459290 836.907166,577.746643 
	C836.842224,577.886658 836.670715,577.904114 836.242065,577.894043 
z"/>
<path fill="#FFFFFF" opacity="1.000000" stroke="none" 
	d="
M784.239014,577.870056 
	C784.200012,577.520325 784.473938,577.442688 784.909546,577.726196 
	C784.844421,577.864990 784.671326,577.883240 784.239014,577.870056 
z"/>
<path fill="#FFFFFF" opacity="1.000000" stroke="none" 
	d="
M385.996185,576.963379 
	C385.553101,576.969116 385.110016,576.974792 384.327240,576.668457 
	C383.653442,575.732422 383.319366,575.108459 382.985260,574.484558 
	C382.755341,574.607056 382.525391,574.729492 382.295471,574.851990 
	C382.526123,575.559204 382.756805,576.266418 382.987488,576.973633 
	C377.305603,576.977356 371.623779,576.981018 365.474854,576.978943 
	C363.654022,573.637756 357.998474,571.994324 354.398285,574.230164 
	C349.669464,577.167053 345.150970,580.442566 339.821503,583.786194 
	C336.400665,583.999939 333.700317,584.000000 330.995483,583.588318 
	C329.908325,582.121155 328.991730,580.515381 327.707550,580.127991 
	C325.248352,579.386169 322.580200,579.336792 319.998779,579.000000 
	C318.700958,578.233826 317.403137,577.467651 316.052063,576.350708 
	C315.234161,572.713074 315.234161,572.713074 320.424316,567.305786 
	C318.188538,564.712402 315.937653,562.101562 313.792145,559.612854 
	C317.902771,557.631775 320.838837,555.512817 324.068268,554.871765 
	C326.914032,554.306885 330.110657,555.798828 333.109253,555.627563 
	C335.719482,555.478516 339.039886,555.034607 340.680023,553.372559 
	C343.756714,550.254578 347.230042,548.795044 350.805817,550.892456 
	C355.369110,553.569153 359.609741,556.508179 365.478516,553.354797 
	C367.322906,552.363770 370.573120,554.115356 373.202301,554.414062 
	C374.943787,554.611938 376.725220,554.458191 379.122253,554.051453 
	C391.837585,553.759888 403.919403,553.878723 416.000793,554.424316 
	C414.666962,559.234070 413.333496,563.617065 411.596069,567.938110 
	C405.599518,565.744507 400.635376,567.033386 396.106262,571.674011 
	C395.280609,569.342407 394.778839,567.925354 394.375793,566.787170 
	C392.188934,568.264771 390.265259,570.612244 388.278687,570.666687 
	C385.122040,570.753296 381.938721,569.236267 378.731750,568.564453 
	C377.927826,568.396057 376.805328,568.623596 376.172791,569.113037 
	C375.653961,569.514526 375.227661,570.845032 375.508820,571.279907 
	C375.924408,571.922791 376.988525,572.439148 377.802429,572.478943 
	C380.672211,572.619202 383.553009,572.533569 386.815491,572.533569 
	C386.516357,574.150818 386.256287,575.557068 385.996185,576.963379 
z"/>
<path fill="#FFFFFF" opacity="1.000000" stroke="none" 
	d="
M286.001282,598.002441 
	C286.750702,598.002502 287.500153,598.002563 288.722015,598.144775 
	C289.462982,598.192078 289.731506,598.097229 290.000031,598.002441 
	C290.000031,598.002441 290.500000,598.002075 290.847473,598.144226 
	C291.463593,598.191467 291.732269,598.096497 292.000916,598.001587 
	C292.444885,598.001892 292.888855,598.002136 293.763672,598.144592 
	C294.463348,598.191162 294.732178,598.095520 295.000977,598.000000 
	C297.151764,598.092285 299.302521,598.184631 301.795349,598.473572 
	C304.900391,604.645874 310.016663,603.625916 315.001221,602.997559 
	C315.526062,610.394409 315.526062,610.394409 306.570618,613.658508 
	C306.970551,613.950256 307.370453,614.242004 307.770386,614.533752 
	C306.353760,616.879333 304.937134,619.224976 302.864197,621.787170 
	C298.203613,622.535828 294.545288,623.478394 292.493317,627.619812 
	C291.948151,628.720032 290.197174,629.222900 288.999817,630.000000 
	C285.980133,627.040161 282.913666,624.126221 279.953125,621.108398 
	C276.559662,617.649231 273.166077,620.674500 269.388062,620.983887 
	C269.100464,620.509460 269.124878,619.998169 269.302338,619.547180 
	C271.647888,613.586853 271.577423,613.463318 265.012970,613.022034 
	C267.705750,608.133057 267.194214,604.284363 261.554382,602.044556 
	C261.198730,601.903259 261.630310,599.779846 261.849182,598.291687 
	C262.837006,598.068970 263.671326,598.133118 264.849945,598.242188 
	C265.463409,598.192200 265.732544,598.097351 266.001648,598.002441 
	C266.001648,598.002441 266.499207,598.003296 266.901886,598.279541 
	C268.870789,598.371826 270.437012,598.187927 272.003204,598.004028 
	C272.445953,598.004211 272.888672,598.004517 273.728577,598.323364 
	C275.418152,598.428772 276.710602,598.215576 278.003052,598.002441 
	C278.003052,598.002441 278.500153,598.003174 278.846924,598.145081 
	C279.463196,598.192139 279.732635,598.097229 280.002075,598.002441 
	C280.002106,598.002441 280.500427,598.002869 280.847595,598.144775 
	C281.463654,598.191895 281.732544,598.097168 282.001465,598.002441 
	C282.001465,598.002441 282.499817,598.003052 282.947571,598.230103 
	C284.263977,598.305603 285.132629,598.153992 286.001282,598.002441 
z"/>
<path fill="#FFFFFF" opacity="1.000000" stroke="none" 
	d="
M298.580139,535.690552 
	C303.904877,540.570801 309.229614,545.451050 314.260986,550.651184 
	C308.301788,550.983765 302.635956,550.996460 296.725464,550.991577 
	C296.480804,550.974121 295.991028,551.002991 295.831177,550.590698 
	C287.923187,550.126343 280.172150,550.185852 272.427795,549.985779 
	C266.591705,549.835022 260.764191,549.351868 254.932846,549.016602 
	C251.642242,544.747192 248.351654,540.477722 245.011017,535.480347 
	C245.339050,534.486816 245.717285,533.988647 246.095215,533.988892 
	C262.751221,533.999573 279.407227,534.054260 296.063232,534.103760 
	C296.063232,534.103760 296.022705,534.001831 296.060730,534.347412 
	C296.746490,534.815979 297.394196,534.939026 298.041931,535.062012 
	C298.041931,535.062012 298.085236,534.960938 298.164062,535.039551 
	C298.384705,535.291626 298.497131,535.482422 298.580139,535.690552 
z"/>
<path fill="#FFFFFF" opacity="1.000000" stroke="none" 
	d="
M250.014404,586.995667 
	C250.014435,586.995667 250.006516,586.547668 250.353363,586.282043 
	C251.204727,585.379211 251.709244,584.742004 252.213745,584.104797 
	C253.346451,582.821411 254.479172,581.538025 256.328766,580.090088 
	C262.470886,579.610718 267.893158,579.105652 273.321960,579.022461 
	C283.299835,578.869446 293.281891,579.003479 303.261292,578.915649 
	C304.773407,578.902283 306.280701,578.338501 307.790222,578.029358 
	C308.383545,577.870605 308.976868,577.711853 309.801514,577.350952 
	C310.761963,577.150879 311.491150,577.152893 312.584045,577.170898 
	C314.234924,578.722534 315.626862,579.908081 312.961884,581.838501 
	C309.244507,584.531250 305.956635,587.816833 301.835602,590.932312 
	C300.426910,591.666992 299.667572,592.317993 298.908234,592.969055 
	C298.908234,592.969055 299.004395,592.989624 298.670349,592.968262 
	C297.531891,593.615173 296.727478,594.283447 295.923065,594.951660 
	C295.923065,594.951660 296.018463,594.989502 295.568665,595.012756 
	C280.853516,595.034241 266.588135,595.010254 252.323090,595.073608 
	C251.209335,595.078552 250.098251,595.693237 248.985931,596.024536 
	C247.871231,595.916748 246.756531,595.808960 244.912811,595.630676 
	C246.060394,593.393494 246.981491,591.597839 248.316360,589.421143 
	C249.158218,588.358643 249.586304,587.677124 250.014404,586.995667 
z"/>
<path fill="#FFFFFF" opacity="1.000000" stroke="none" 
	d="
M416.001221,553.997559 
	C403.919403,553.878723 391.837585,553.759888 379.382080,553.787842 
	C378.066376,553.244324 377.124329,552.554016 376.097137,551.572754 
	C399.373627,551.216553 422.735260,551.151184 446.655060,551.290283 
	C447.213226,551.494690 447.650513,551.551331 447.650513,551.551331 
	C447.650513,551.551331 447.984497,551.238770 447.984497,551.238770 
	C449.054413,551.178650 450.124329,551.118469 451.549805,551.402466 
	C451.599976,552.171997 451.294617,552.597351 450.536987,553.016846 
	C441.995392,553.011353 433.904572,552.919617 425.817596,553.057312 
	C422.541077,553.113098 419.273102,553.669128 416.001221,553.997559 
z"/>
<path fill="#FFFFFF" opacity="1.000000" stroke="none" 
	d="
M291.994263,551.265015 
	C290.485870,551.931030 288.983002,553.156128 287.468170,553.171021 
	C278.444641,553.260071 269.417938,553.091980 260.393768,552.929626 
	C259.687805,552.916931 258.992981,552.288818 258.613708,551.508545 
	C266.292419,551.121033 273.650391,551.171814 281.105347,551.352234 
	C281.202301,551.481873 281.649689,551.542664 281.649689,551.542664 
	C281.649689,551.542664 281.991608,551.223022 282.440155,551.143066 
	C285.923889,551.130432 288.959076,551.197754 291.994263,551.265015 
z"/>
<path fill="#FFFFFF" opacity="1.000000" stroke="none" 
	d="
M295.904663,533.690491 
	C279.407227,534.054260 262.751221,533.999573 246.095215,533.988892 
	C245.717285,533.988647 245.339050,534.486816 244.837082,535.155640 
	C244.348770,534.870789 243.984344,534.182739 243.504761,533.277283 
	C261.121948,533.277283 278.434021,533.277283 295.904663,533.690491 
z"/>
<path fill="#FFFFFF" opacity="1.000000" stroke="none" 
	d="
M281.008362,551.222595 
	C273.650391,551.171814 266.292419,551.121033 258.471680,551.146973 
	C256.955902,550.734375 255.902924,550.245117 254.891388,549.386230 
	C260.764191,549.351868 266.591705,549.835022 272.427795,549.985779 
	C280.172150,550.185852 287.923187,550.126343 295.460999,550.627563 
	C294.511810,551.136902 293.773010,551.197021 293.034180,551.257080 
	C292.860443,551.207886 292.686676,551.158691 292.253601,551.187256 
	C288.959076,551.197754 285.923889,551.130432 282.194427,551.054077 
	C281.336243,551.104187 281.172302,551.163391 281.008362,551.222595 
z"/>
<path fill="#FFFFFF" opacity="1.000000" stroke="none" 
	d="
M293.276123,551.554138 
	C293.773010,551.197021 294.511810,551.136902 295.620850,551.039917 
	C295.991028,551.002991 296.480804,550.974121 297.037415,551.271423 
	C303.725037,551.723022 309.856049,551.877258 315.987061,552.031555 
	C308.497406,551.971436 301.007721,551.911316 293.276123,551.554138 
z"/>
<path fill="#FFFFFF" opacity="1.000000" stroke="none" 
	d="
M316.113129,551.856262 
	C309.856049,551.877258 303.725037,551.723022 297.282104,551.288940 
	C302.635956,550.996460 308.301788,550.983765 314.423157,550.927185 
	C315.332184,551.149170 315.785675,551.415100 316.113129,551.856262 
z"/>
<path fill="#FFFFFF" opacity="1.000000" stroke="none" 
	d="
M297.961273,534.660034 
	C297.394196,534.939026 296.746490,534.815979 296.009552,534.367065 
	C296.573761,534.113464 297.227173,534.185791 297.961273,534.660034 
z"/>
<path fill="#FFFFFF" opacity="1.000000" stroke="none" 
	d="
M298.364685,535.674927 
	C298.497131,535.482422 298.384705,535.291626 298.117310,535.010742 
	C297.788269,535.208130 297.840790,535.460144 298.364685,535.674927 
z"/>
<path fill="#FFFFFF" opacity="1.000000" stroke="none" 
	d="
M276.953918,506.432251 
	C277.130768,506.160950 277.303101,506.089233 277.742065,506.103455 
	C277.853760,506.450226 277.646118,506.658386 277.190582,506.921143 
	C276.995453,507.028412 276.949341,506.631836 276.953918,506.432251 
z"/>
<path fill="#FFFFFF" opacity="1.000000" stroke="none" 
	d="
M299.689270,654.051636 
	C298.429718,652.574829 297.201050,651.501099 296.347687,650.184204 
	C295.061310,648.198975 293.857971,646.474121 297.365265,644.779602 
	C300.515533,643.257690 303.028503,640.416504 305.821869,638.156372 
	C305.950836,638.052063 306.055237,637.900757 306.199982,637.835144 
	C308.865143,636.626709 314.442383,640.903442 316.829315,645.959351 
	C318.444885,649.381531 317.364075,651.631897 313.941895,653.040833 
	C309.677887,654.796326 305.457520,656.657837 300.912628,658.604492 
	C300.579712,657.220520 300.233917,655.783203 299.689270,654.051636 
z"/>
<path fill="#FFFFFF" opacity="1.000000" stroke="none" 
	d="
M315.153564,602.654724 
	C310.016663,603.625916 304.900391,604.645874 302.068115,598.336304 
	C302.493683,597.475220 302.994232,596.491333 303.482605,596.497314 
	C306.029205,596.528625 308.572601,596.967834 311.117371,596.970459 
	C314.926514,596.974365 317.024200,598.084534 315.153564,602.654724 
z"/>
<path fill="#FFFFFF" opacity="1.000000" stroke="none" 
	d="
M307.336792,578.059082 
	C306.280701,578.338501 304.773407,578.902283 303.261292,578.915649 
	C293.281891,579.003479 283.299835,578.869446 273.321960,579.022461 
	C267.893158,579.105652 262.470886,579.610718 256.595032,579.905273 
	C257.585083,579.289612 259.021515,578.188354 260.466949,578.176331 
	C275.938263,578.048096 291.410980,578.092102 307.336792,578.059082 
z"/>
<path fill="#FFFFFF" opacity="1.000000" stroke="none" 
	d="
M289.083557,630.346741 
	C290.197174,629.222900 291.948151,628.720032 292.493317,627.619812 
	C294.545288,623.478394 298.203613,622.535828 302.603699,622.003113 
	C300.172150,625.438721 298.465271,630.129089 293.356567,631.035706 
	C292.022400,631.272461 290.566986,630.826050 289.083557,630.346741 
z"/>
<path fill="#FFFFFF" opacity="1.000000" stroke="none" 
	d="
M249.454117,596.059570 
	C250.098251,595.693237 251.209335,595.078552 252.323090,595.073608 
	C266.588135,595.010254 280.853516,595.034241 295.587280,594.964966 
	C294.612915,595.246033 293.172760,595.891907 291.726959,595.904785 
	C277.792603,596.028931 263.857330,596.046509 249.454117,596.059570 
z"/>
<path fill="#FFFFFF" opacity="1.000000" stroke="none" 
	d="
M320.067749,579.335754 
	C322.580200,579.336792 325.248352,579.386169 327.707550,580.127991 
	C328.991730,580.515381 329.908325,582.121155 330.745483,583.588318 
	C330.500000,584.000000 330.000000,584.000000 330.000000,584.000000 
	C326.528564,582.975708 321.917480,584.548340 320.067749,579.335754 
z"/>
<path fill="#FFFFFF" opacity="1.000000" stroke="none" 
	d="
M330.087463,584.359253 
	C330.000000,584.000000 330.500000,584.000000 330.750000,584.000000 
	C333.700317,584.000000 336.400665,583.999939 339.551086,584.000000 
	C338.470093,587.982300 335.343109,588.210938 330.087463,584.359253 
z"/>
<path fill="#FFFFFF" opacity="1.000000" stroke="none" 
	d="
M271.585999,598.002808 
	C270.437012,598.187927 268.870789,598.371826 267.150696,598.279053 
	C268.387451,598.002197 269.778107,598.001892 271.585999,598.002808 
z"/>
<path fill="#FFFFFF" opacity="1.000000" stroke="none" 
	d="
M277.602325,598.001587 
	C276.710602,598.215576 275.418152,598.428772 274.060608,598.323425 
	C275.064209,598.003479 276.132904,598.002075 277.602325,598.001587 
z"/>
<path fill="#FFFFFF" opacity="1.000000" stroke="none" 
	d="
M299.182556,593.176392 
	C299.667572,592.317993 300.426910,591.666992 301.515137,591.069641 
	C301.048340,591.876831 300.252594,592.630310 299.182556,593.176392 
z"/>
<path fill="#FFFFFF" opacity="1.000000" stroke="none" 
	d="
M296.179901,595.278503 
	C296.727478,594.283447 297.531891,593.615173 298.680115,592.920044 
	C298.161469,593.797241 297.299103,594.701294 296.179901,595.278503 
z"/>
<path fill="#FFFFFF" opacity="1.000000" stroke="none" 
	d="
M285.625916,598.001465 
	C285.132629,598.153992 284.263977,598.305603 283.196777,598.229736 
	C283.748962,598.001770 284.499756,598.001160 285.625916,598.001465 
z"/>
<path fill="#FFFFFF" opacity="1.000000" stroke="none" 
	d="
M249.745941,587.129272 
	C249.586304,587.677124 249.158218,588.358643 248.391113,589.082153 
	C248.527222,588.503784 249.002365,587.883301 249.745941,587.129272 
z"/>
<path fill="#FFFFFF" opacity="1.000000" stroke="none" 
	d="
M251.913361,584.188843 
	C251.709244,584.742004 251.204727,585.379211 250.370453,586.058655 
	C250.564774,585.491577 251.088867,584.882263 251.913361,584.188843 
z"/>
<path fill="#FFFFFF" opacity="1.000000" stroke="none" 
	d="
M265.750793,598.002075 
	C265.732544,598.097351 265.463409,598.192200 265.096252,598.144775 
	C265.165466,598.002197 265.332703,598.001953 265.750793,598.002075 
z"/>
<path fill="#FFFFFF" opacity="1.000000" stroke="none" 
	d="
M294.750427,598.000061 
	C294.732178,598.095520 294.463348,598.191162 294.096649,598.144165 
	C294.165802,598.001160 294.332855,598.000671 294.750427,598.000061 
z"/>
<path fill="#FFFFFF" opacity="1.000000" stroke="none" 
	d="
M291.750671,598.001160 
	C291.732269,598.096497 291.463593,598.191467 291.097473,598.143921 
	C291.166840,598.001160 291.333649,598.000916 291.750671,598.001160 
z"/>
<path fill="#FFFFFF" opacity="1.000000" stroke="none" 
	d="
M289.749786,598.002075 
	C289.731506,598.097229 289.462982,598.192078 289.096741,598.144653 
	C289.165894,598.002197 289.332703,598.001953 289.749786,598.002075 
z"/>
<path fill="#FFFFFF" opacity="1.000000" stroke="none" 
	d="
M281.750793,598.002075 
	C281.732544,598.097168 281.463654,598.191895 281.096741,598.144531 
	C281.165894,598.002197 281.333008,598.001953 281.750793,598.002075 
z"/>
<path fill="#FFFFFF" opacity="1.000000" stroke="none" 
	d="
M279.750885,598.002075 
	C279.732635,598.097229 279.463196,598.192139 279.095490,598.144714 
	C279.164734,598.002258 279.332214,598.002014 279.750885,598.002075 
z"/>
<path fill="#FFFFFF" opacity="1.000000" stroke="none" 
	d="
M450.989258,553.022766 
	C451.294617,552.597351 451.599976,552.171997 451.945679,551.477112 
	C452.440125,551.143433 452.894165,551.079224 453.783142,551.442139 
	C459.247620,555.155029 464.876678,552.287781 470.136475,553.328491 
	C470.259460,553.352783 470.658997,551.979431 470.929504,551.258057 
	C471.637878,551.198486 472.346283,551.138916 473.650269,551.550598 
	C476.147186,552.350037 478.044830,552.937683 479.950409,552.964844 
	C493.695007,553.161072 507.443695,553.435852 521.185669,553.260437 
	C526.120911,553.197449 531.041138,551.963501 535.968262,551.263977 
	C536.141663,551.213928 536.315002,551.163818 536.748047,551.189575 
	C540.703857,551.847290 544.400024,552.429016 548.554321,553.018860 
	C552.845520,556.601379 559.310364,557.669678 564.178589,555.381165 
	C564.673584,556.343567 565.173035,557.314697 565.675110,558.290833 
	C566.017944,558.171753 566.364807,558.142090 566.584839,557.959534 
	C567.708008,557.027344 568.798401,556.055725 569.900269,555.097900 
	C570.603394,556.372925 571.259094,557.677185 572.020325,558.916504 
	C573.308167,561.013245 574.662842,563.069031 575.896606,564.996948 
	C579.712463,564.996948 583.641357,564.996948 587.570251,564.996948 
	C587.801575,564.331543 588.032898,563.666138 588.264221,563.000732 
	C584.190369,560.988831 580.116455,558.976929 575.317566,556.607056 
	C581.746887,553.995728 594.371643,557.972778 596.674194,562.062988 
	C599.031616,561.667969 601.181885,561.346436 603.313660,560.929871 
	C604.088745,560.778381 605.040833,560.610168 605.534546,560.090698 
	C608.897949,556.551941 613.721008,555.571960 618.270630,558.296448 
	C620.877258,559.857300 622.620483,559.448547 625.014709,558.025269 
	C627.126648,556.769836 629.750061,556.374695 632.808350,555.386108 
	C630.903687,564.444031 632.667725,568.733093 639.234619,573.215942 
	C632.193237,575.226685 626.082642,573.715515 621.284180,567.239441 
	C621.036499,567.621948 620.788879,568.004456 620.541199,568.386963 
	C620.541199,570.063354 620.541199,571.739746 620.541199,574.000610 
	C616.683044,572.959900 612.718079,574.959961 609.617188,571.174316 
	C609.152649,570.607178 606.028320,572.218628 603.348083,573.072876 
	C598.673096,570.759155 598.673096,570.759155 596.225464,573.353455 
	C594.171143,570.656067 588.140320,569.841003 584.494812,571.330872 
	C585.060913,573.111328 585.570740,574.714905 586.041626,576.643311 
	C583.630493,576.972229 581.258301,576.976257 578.440186,576.591797 
	C577.027832,574.922852 576.194397,572.679993 575.072754,572.525208 
	C569.621216,571.772766 564.092468,571.579468 558.000000,571.146179 
	C558.000000,572.771484 558.000000,574.867432 558.000000,576.963440 
	C557.249329,576.966125 556.498718,576.968811 555.363281,576.594482 
	C552.552551,569.728943 551.086853,569.555359 546.160095,575.076355 
	C543.729431,573.785217 541.131714,571.249634 538.968384,571.577698 
	C536.757019,571.913086 534.971802,575.057678 533.000000,576.972534 
	C531.285461,576.975769 529.570923,576.979065 527.401733,576.570190 
	C525.116211,571.931091 521.435974,574.774780 518.692383,574.031311 
	C516.566528,573.455261 514.249207,573.447144 512.237976,572.637573 
	C510.992462,572.136169 510.160339,570.607849 509.142639,569.540466 
	C508.291901,570.906677 507.441162,572.272888 506.590424,573.639160 
	C506.446625,573.413574 506.302826,573.187927 506.159027,572.962341 
	C504.439941,574.298462 502.720856,575.634583 501.001770,576.970703 
	C499.258148,576.661804 497.514496,576.352844 495.385864,575.613525 
	C494.395355,573.825439 494.121826,571.934021 493.076355,571.283813 
	C492.279510,570.788208 490.522949,571.978210 489.158081,572.216370 
	C487.542816,572.498291 485.555634,573.224976 484.315216,572.598877 
	C480.493134,570.669556 471.442535,572.412354 469.100647,575.986938 
	C468.941071,576.230530 469.028870,576.636169 469.001617,576.966431 
	C464.627838,576.652344 460.254028,576.338318 455.379028,575.691406 
	C450.662567,571.110962 448.780304,571.493835 447.001556,576.960693 
	C446.555908,576.965637 446.110229,576.970581 445.281189,576.693237 
	C444.583740,576.117126 444.269623,575.823303 443.955505,575.529419 
	C443.638245,576.008850 443.320984,576.488281 443.003723,576.967773 
	C441.613464,576.971252 440.223145,576.974792 438.415955,576.546875 
	C437.872650,572.954224 438.958008,569.168030 435.039551,568.574646 
	C431.986481,570.764221 429.528809,572.526794 427.071167,574.289429 
	C427.071167,572.377014 427.071167,570.464661 427.071167,568.552246 
	C426.773285,568.300598 426.475433,568.048889 426.177551,567.797241 
	C425.249542,569.076233 424.321503,570.355225 423.330994,571.720337 
	C418.751709,570.407776 418.573761,567.922058 423.000000,562.750000 
	C423.000000,562.500000 423.000000,562.000000 423.382202,561.997681 
	C429.852478,562.125427 424.312317,558.248596 425.443726,556.820679 
	C433.565643,556.820679 441.561859,556.820679 449.296844,556.820679 
	C450.043427,555.145325 450.516357,554.084045 450.989258,553.022766 
z"/>
<path fill="#FFFFFF" opacity="1.000000" stroke="none" 
	d="
M712.942505,569.570923 
	C711.848572,570.043213 711.094238,570.363342 709.865662,570.884705 
	C709.720154,569.269287 709.602478,567.962952 709.484314,566.651550 
	C707.060913,565.933594 704.701111,565.234497 702.168030,564.484009 
	C698.487305,569.282532 693.986511,564.780579 689.690002,565.392029 
	C693.176575,564.938110 690.024963,554.934937 697.413391,560.237244 
	C698.696899,556.768188 699.622437,553.650452 704.563416,557.642883 
	C708.298218,560.660583 713.430481,561.963501 717.975159,563.950989 
	C718.840088,564.329285 719.920715,564.636230 720.807800,564.471008 
	C725.422729,563.611633 727.934143,565.940308 729.714294,570.105225 
	C727.028076,571.352722 724.446960,572.551392 721.096924,574.107178 
	C721.246948,571.323486 721.356567,569.288757 721.427551,567.971741 
	C718.705505,568.455322 715.993774,568.937012 712.942505,569.570923 
z"/>
<path fill="#FFFFFF" opacity="1.000000" stroke="none" 
	d="
M844.826050,569.187622 
	C846.464539,570.240234 847.872009,571.002258 849.448914,571.856079 
	C845.985046,574.859253 842.959106,574.657898 839.197998,572.012878 
	C836.542114,570.145020 835.021729,565.451904 830.316589,567.384033 
	C830.109497,565.589539 829.231323,563.500610 829.858154,562.071960 
	C830.723694,560.099243 832.724060,558.624512 834.671204,556.453979 
	C838.199951,560.878479 841.397522,564.887756 844.826050,569.187622 
z"/>
<path fill="#FFFFFF" opacity="1.000000" stroke="none" 
	d="
M767.256653,571.157959 
	C766.729980,570.655518 766.273987,570.411560 766.285828,570.192810 
	C766.597900,564.413086 762.814087,560.685303 759.481445,556.505371 
	C763.359314,558.748718 768.504089,558.711670 770.027100,564.190857 
	C771.380859,569.061218 777.301270,570.281433 780.693176,566.790466 
	C782.122864,565.318970 784.047241,564.328064 786.003906,562.935730 
	C785.796753,568.407776 781.510254,572.876953 776.832581,572.661255 
	C773.724487,572.517944 770.640198,571.857239 767.256653,571.157959 
z"/>
<path fill="#FFFFFF" opacity="1.000000" stroke="none" 
	d="
M677.955811,562.117310 
	C677.460632,563.201538 676.471069,564.932434 675.926392,564.802246 
	C672.821045,564.059998 670.595886,562.224976 670.187805,557.424561 
	C673.224121,559.243347 675.445496,560.573914 677.955811,562.117310 
z"/>
<path fill="#FFFFFF" opacity="1.000000" stroke="none" 
	d="
M735.656189,577.569336 
	C727.265869,578.004822 718.532532,578.210205 709.327637,578.298340 
	C710.893066,577.783081 712.928162,577.058777 714.967468,577.046631 
	C721.748535,577.006226 728.531189,577.221741 735.656189,577.569336 
z"/>
<path fill="#FFFFFF" opacity="1.000000" stroke="none" 
	d="
M681.877197,572.278198 
	C681.310120,570.918152 680.822937,569.906067 680.335754,568.893982 
	C680.780518,568.549133 681.225281,568.204285 681.670105,567.859497 
	C683.011963,569.633606 684.353821,571.407776 685.695679,573.181885 
	C685.376770,573.686707 685.057861,574.191467 684.738953,574.696289 
	C683.811707,574.006226 682.884399,573.316162 681.877197,572.278198 
z"/>
<path fill="#FFFFFF" opacity="1.000000" stroke="none" 
	d="
M816.358704,561.358521 
	C816.938171,564.416504 815.327576,565.042908 809.976562,562.862305 
	C812.825928,562.084778 814.431946,561.646606 816.358704,561.358521 
z"/>
<path fill="#FFFFFF" opacity="1.000000" stroke="none" 
	d="
M673.561157,570.153687 
	C672.981018,570.772156 672.383179,571.108093 671.785339,571.444092 
	C671.735657,571.026611 671.570435,570.274597 671.654846,570.245422 
	C672.255798,570.037842 672.907715,569.978027 673.561157,570.153687 
z"/>
<path fill="#FFFFFF" opacity="1.000000" stroke="none" 
	d="
M657.221069,571.737549 
	C657.057800,571.201843 657.165588,570.727356 657.273438,570.252869 
	C657.655029,570.464783 658.036682,570.676636 658.418274,570.888550 
	C658.109558,571.191956 657.800781,571.495361 657.221069,571.737549 
z"/>
<path fill="#FFFFFF" opacity="1.000000" stroke="none" 
	d="
M823.956055,563.527344 
	C823.817993,563.182373 823.895325,562.840515 823.972656,562.498657 
	C824.038940,562.842590 824.105225,563.186523 823.956055,563.527344 
z"/>
<path fill="#FFFFFF" opacity="1.000000" stroke="none" 
	d="
M657.472656,555.956177 
	C657.817627,555.818115 658.159302,555.895447 658.501038,555.972778 
	C658.157166,556.039001 657.813354,556.105225 657.472656,555.956177 
z"/>
<path fill="#FFFFFF" opacity="1.000000" stroke="none" 
	d="
M697.472534,569.956055 
	C697.817566,569.817993 698.159424,569.895386 698.501282,569.972839 
	C698.157288,570.039062 697.813293,570.105286 697.472534,569.956055 
z"/>
<path fill="#FFFFFF" opacity="1.000000" stroke="none" 
	d="
M859.000061,519.000854 
	C859.000122,519.001709 859.239868,518.604980 859.239868,518.604980 
	C859.239868,518.604980 859.222534,518.903015 859.110291,518.951416 
	C858.998047,518.999878 859.000000,519.000000 859.000061,519.000854 
z"/>
<path fill="#FFFFFF" opacity="1.000000" stroke="none" 
	d="
M423.000000,563.000000 
	C418.573761,567.922058 418.751709,570.407776 423.330994,571.720337 
	C424.321503,570.355225 425.249542,569.076233 426.177551,567.797241 
	C426.475433,568.048889 426.773285,568.300598 427.071167,568.552246 
	C427.071167,570.464661 427.071167,572.377014 427.071167,574.289429 
	C429.528809,572.526794 431.986481,570.764221 435.039551,568.574646 
	C438.958008,569.168030 437.872650,572.954224 437.998932,576.538757 
	C430.640686,576.971375 423.282562,576.980774 415.478455,576.614746 
	C415.852570,574.199097 416.672668,572.158936 417.492767,570.118713 
	C415.661835,569.412476 413.830933,568.706238 412.000000,568.000000 
	C413.333496,563.617065 414.666962,559.234070 416.000793,554.424316 
	C419.273102,553.669128 422.541077,553.113098 425.817596,553.057312 
	C433.904572,552.919617 441.995392,553.011353 450.536987,553.016846 
	C450.516357,554.084045 450.043427,555.145325 449.296844,556.820679 
	C441.561859,556.820679 433.565643,556.820679 425.443726,556.820679 
	C424.312317,558.248596 429.852478,562.125427 423.176147,561.771912 
	C421.911835,561.674133 421.235779,561.799805 420.559753,561.925476 
	C421.373169,562.283630 422.186584,562.641785 423.000000,563.000000 
z"/>
<path fill="#FFFFFF" opacity="1.000000" stroke="none" 
	d="
M411.596069,567.938110 
	C413.830933,568.706238 415.661835,569.412476 417.492767,570.118713 
	C416.672668,572.158936 415.852570,574.199097 415.016235,576.609863 
	C405.644684,576.982239 396.289337,576.984009 386.465088,576.974609 
	C386.256287,575.557068 386.516357,574.150818 386.815491,572.533569 
	C383.553009,572.533569 380.672211,572.619202 377.802429,572.478943 
	C376.988525,572.439148 375.924408,571.922791 375.508820,571.279907 
	C375.227661,570.845032 375.653961,569.514526 376.172791,569.113037 
	C376.805328,568.623596 377.927826,568.396057 378.731750,568.564453 
	C381.938721,569.236267 385.122040,570.753296 388.278687,570.666687 
	C390.265259,570.612244 392.188934,568.264771 394.375793,566.787170 
	C394.778839,567.925354 395.280609,569.342407 396.106262,571.674011 
	C400.635376,567.033386 405.599518,565.744507 411.596069,567.938110 
z"/>
<path fill="#FFFFFF" opacity="1.000000" stroke="none" 
	d="
M469.469910,576.975586 
	C469.028870,576.636169 468.941071,576.230530 469.100647,575.986938 
	C471.442535,572.412354 480.493134,570.669556 484.315216,572.598877 
	C485.555634,573.224976 487.542816,572.498291 489.158081,572.216370 
	C490.522949,571.978210 492.279510,570.788208 493.076355,571.283813 
	C494.121826,571.934021 494.395355,573.825439 495.003479,575.604614 
	C486.650177,576.345642 478.294189,576.665222 469.469910,576.975586 
z"/>
<path fill="#FFFFFF" opacity="1.000000" stroke="none" 
	d="
M558.458374,576.973145 
	C558.000000,574.867432 558.000000,572.771484 558.000000,571.146179 
	C564.092468,571.579468 569.621216,571.772766 575.072754,572.525208 
	C576.194397,572.679993 577.027832,574.922852 577.995850,576.584229 
	C571.637268,576.971069 565.276978,576.976990 558.458374,576.973145 
z"/>
<path fill="#FFFFFF" opacity="1.000000" stroke="none" 
	d="
M533.468506,576.980347 
	C534.971802,575.057678 536.757019,571.913086 538.968384,571.577698 
	C541.131714,571.249634 543.729431,573.785217 546.160095,575.076355 
	C551.086853,569.555359 552.552551,569.728943 554.988037,576.585205 
	C547.977417,576.964783 540.957214,576.976501 533.468506,576.980347 
z"/>
<path fill="#FFFFFF" opacity="1.000000" stroke="none" 
	d="
M501.448853,576.977478 
	C502.720856,575.634583 504.439941,574.298462 506.159027,572.962341 
	C506.302826,573.187927 506.446625,573.413574 506.590424,573.639160 
	C507.441162,572.272888 508.291901,570.906677 509.142639,569.540466 
	C510.160339,570.607849 510.992462,572.136169 512.237976,572.637573 
	C514.249207,573.447144 516.566528,573.455261 518.692383,574.031311 
	C521.435974,574.774780 525.116211,571.931091 526.973267,576.562317 
	C518.631592,576.972534 510.263763,576.978455 501.448853,576.977478 
z"/>
<path fill="#FFFFFF" opacity="1.000000" stroke="none" 
	d="
M447.429321,576.970947 
	C448.780304,571.493835 450.662567,571.110962 454.942871,575.693420 
	C452.624329,576.345886 450.240692,576.663574 447.429321,576.970947 
z"/>
<path fill="#FFFFFF" opacity="1.000000" stroke="none" 
	d="
M383.241150,576.978760 
	C382.756805,576.266418 382.526123,575.559204 382.295471,574.851990 
	C382.525391,574.729492 382.755341,574.607056 382.985260,574.484558 
	C383.319366,575.108459 383.653442,575.732422 383.994904,576.666321 
	C383.833099,576.978821 383.663971,576.981384 383.241150,576.978760 
z"/>
<path fill="#FFFFFF" opacity="1.000000" stroke="none" 
	d="
M443.335754,576.975281 
	C443.320984,576.488281 443.638245,576.008850 443.955505,575.529419 
	C444.269623,575.823303 444.583740,576.117126 444.946930,576.688721 
	C444.553284,576.971863 444.110565,576.977356 443.335754,576.975281 
z"/>
<path fill="#FFFFFF" opacity="1.000000" stroke="none" 
	d="
M535.509888,551.183960 
	C531.041138,551.963501 526.120911,553.197449 521.185669,553.260437 
	C507.443695,553.435852 493.695007,553.161072 479.950409,552.964844 
	C478.044830,552.937683 476.147186,552.350037 473.997498,551.637451 
	C488.861237,551.187988 503.973419,551.123047 519.642212,551.258484 
	C520.461548,551.353027 520.724243,551.247131 520.986938,551.141235 
	C525.675110,551.128784 530.363281,551.116333 535.509888,551.183960 
z"/>
<path fill="#FFFFFF" opacity="1.000000" stroke="none" 
	d="
M470.535431,551.177979 
	C470.658997,551.979431 470.259460,553.352783 470.136475,553.328491 
	C464.876678,552.287781 459.247620,555.155029 454.115356,551.542847 
	C459.388885,551.177063 464.765106,551.137512 470.535431,551.177979 
z"/>
<path fill="#FFFFFF" opacity="1.000000" stroke="none" 
	d="
M520.742371,551.060547 
	C520.724243,551.247131 520.461548,551.353027 520.109131,551.314819 
	C520.178894,551.107178 520.338318,551.043518 520.742371,551.060547 
z"/>
<path fill="#FFFFFF" opacity="1.000000" stroke="none" 
	d="
M447.744751,551.161133 
	C447.984497,551.238770 447.650513,551.551331 447.650513,551.551331 
	C447.650513,551.551331 447.213226,551.494690 447.119629,551.367554 
	C447.185699,551.188049 447.345367,551.135742 447.744751,551.161133 
z"/>
<path fill="#FFFFFF" opacity="1.000000" stroke="none" 
	d="
M202.200333,506.396179 
	C202.748871,506.131439 203.511566,506.059113 204.643768,506.100159 
	C204.147003,506.338531 203.280762,506.463593 202.200333,506.396179 
z"/>
<path fill="#FFFFFF" opacity="1.000000" stroke="none" 
	d="
M226.082748,506.361023 
	C226.154648,506.152252 226.326950,506.078522 226.757721,506.115387 
	C226.738510,506.316040 226.460831,506.406067 226.082748,506.361023 
z"/>
<path fill="#FFFFFF" opacity="1.000000" stroke="none" 
	d="
M209.078613,506.346832 
	C209.154297,506.155548 209.330597,506.098358 209.763763,506.147644 
	C209.740158,506.329742 209.459702,506.405365 209.078613,506.346832 
z"/>
<path fill="#FFFFFF" opacity="1.000000" stroke="none" 
	d="
M233.077515,506.321869 
	C233.152542,506.110992 233.326126,506.043640 233.760406,506.076660 
	C233.739426,506.273193 233.457764,506.369324 233.077515,506.321869 
z"/>
<path fill="#FFFFFF" opacity="1.000000" stroke="none" 
	d="
M281.105347,551.352234 
	C281.172302,551.163391 281.336243,551.104187 281.745880,551.134033 
	C281.991608,551.223022 281.649689,551.542664 281.649689,551.542664 
	C281.649689,551.542664 281.202301,551.481873 281.105347,551.352234 
z"/>
<path fill="#FFFFFF" opacity="1.000000" stroke="none" 
	d="
M423.000000,562.750000 
	C422.186584,562.641785 421.373169,562.283630 420.559753,561.925476 
	C421.235779,561.799805 421.911835,561.674133 422.793945,561.774170 
	C423.000000,562.000000 423.000000,562.500000 423.000000,562.750000 
z"/>
</svg>